/* XPM */
static char *crackers32[] = {
/* columns rows colors chars-per-pixel */
"32 32 175 2",
"   c #171C18",
".  c #1B1C17",
"X  c #1C1B1C",
"o  c #1E1F21",
"O  c #1E201E",
"+  c #19311B",
"@  c #1F2120",
"#  c #201A1E",
"$  c #211E21",
"%  c #20201E",
"&  c #222222",
"*  c #262B25",
"=  c #272D2D",
"-  c #282727",
";  c #2A2529",
":  c #282826",
">  c #2B2B2B",
",  c #2C2B30",
"<  c #263028",
"1  c #273828",
"2  c #2A362A",
"3  c #2A3B29",
"4  c #2D3130",
"5  c #2E3A30",
"6  c #312B2F",
"7  c #302E31",
"8  c #333333",
"9  c #37363B",
"0  c #333A35",
"q  c #363C3B",
"w  c #3B3B3B",
"e  c #3F3E43",
"r  c #1B481D",
"t  c #1A5D1A",
"y  c #1E4B20",
"u  c #1F5120",
"i  c #0E6C0E",
"p  c #0F6411",
"a  c #126712",
"s  c #1E6D1C",
"d  c #167F16",
"f  c #187516",
"g  c #1E741D",
"h  c #1D7D1C",
"j  c #234425",
"k  c #25422A",
"l  c #224C24",
"z  c #2B432D",
"x  c #294C2B",
"c  c #275227",
"v  c #245E25",
"b  c #2D542C",
"n  c #344434",
"m  c #3C413B",
"M  c #325334",
"N  c #246928",
"B  c #366C38",
"V  c #337134",
"C  c #3C4442",
"Z  c #3E4649",
"A  c #3F7140",
"S  c #4E3E3F",
"D  c #403E41",
"F  c #414537",
"G  c #5C403F",
"H  c #406C31",
"J  c #454545",
"K  c #454549",
"L  c #464947",
"P  c #454A4C",
"I  c #494544",
"U  c #48474B",
"Y  c #4A4A4A",
"T  c #504748",
"R  c #535353",
"E  c #595758",
"W  c #496147",
"Q  c #4C664D",
"!  c #427C42",
"~  c #4C764E",
"^  c #546153",
"/  c #5B635B",
"(  c #517152",
")  c #577B57",
"_  c #636364",
"`  c #686168",
"'  c #6B6A6B",
"]  c #6A786B",
"[  c #706F6F",
"{  c #727373",
"}  c #707E71",
"|  c #777D79",
" . c #7B7A7A",
".. c #178316",
"X. c #1B811B",
"o. c #208A1E",
"O. c #258625",
"+. c #2C832B",
"@. c #368031",
"#. c #3C8B3C",
"$. c #39913A",
"%. c #3F8841",
"&. c #418741",
"*. c #498049",
"=. c #459445",
"-. c #479349",
";. c #538552",
":. c #578859",
">. c #5D835A",
",. c #5F8F5F",
"<. c #579357",
"1. c #5F965F",
"2. c #599E5D",
"3. c #5D8060",
"4. c #47A547",
"5. c #46A348",
"6. c #49A249",
"7. c #5AA15B",
"8. c #6C836E",
"9. c #669567",
"0. c #728B73",
"q. c #719071",
"w. c #729B72",
"e. c #789279",
"r. c #7D9C7D",
"t. c #68A267",
"y. c #74A375",
"u. c #74A178",
"i. c #72A970",
"p. c #79A27A",
"a. c #7BA380",
"s. c #A91A13",
"d. c #B61B17",
"f. c #BE1916",
"g. c #AC211E",
"h. c #C01815",
"j. c #D10E12",
"k. c #E4090A",
"l. c #FD0000",
"z. c #838282",
"x. c #878C86",
"c. c #848A88",
"v. c #8A8B8A",
"b. c #839583",
"n. c #809D81",
"m. c #8D918B",
"M. c #8A9A8F",
"N. c #8B9D91",
"B. c #908B92",
"V. c #939392",
"C. c #949B93",
"Z. c #989697",
"A. c #9A9D96",
"S. c #9C9D9C",
"D. c #9E9EA1",
"F. c #84A484",
"G. c #8AA187",
"H. c #8AA28B",
"J. c #8CA190",
"K. c #91A28F",
"L. c #93A393",
"P. c #96A498",
"I. c #9DA19C",
"U. c #9BAC9A",
"Y. c #9EA0A0",
"T. c #A09D9E",
"R. c #A19EA1",
"E. c #A99FA7",
"W. c #A0A09D",
"Q. c #A1A0A1",
"!. c #A6A3A8",
"~. c #A8A4A7",
"^. c #AAA2A9",
"/. c #A8A8A6",
"(. c #A8A8A9",
/* pixels */
"& X X & X # & O O $ @ @ @ o @ X & O O # o # # & O @ & O # @ X & ",
"& & & X & O O & & X $ $ $ $ $ @ # & & O & $ & O O & & X & O & & ",
"& & & & & $ & & & & o @ & $ # & & & & O # & & $ @ $ $ & O & & & ",
"& & & & & & X   X X X X     X X   # $ & $ .         X # & & & & ",
"- & & & & & & & w _ ' _ _ _ / ^ Q B u & z E _ [ K - - & & & & & ",
"- & : - X & & > 8 V.(.(.(./.(.U.7.#.b 4 y ~ W.V.Y > & : & & & - ",
"> : - & > & - 8 [ Z.I.Q.!.E.L.%.y < 5 ] B.c.L.v.z.> - & & & - > ",
"- - : & & & > 9 V.W.I.G.w.2.-.b , = 2 >.L./.I.D.V.K > & & > & > ",
"> > & & & : > { S.W.W.P.L.r.,.W 8 4 0 8.C.I.T.Q.V.| > : & - & > ",
"> * & & & 7 m V.D.S.D.R.Q.!.0.x 4 0 / ) e.S.~.D.W.V.w > & & 4 - ",
", & - - & > { D.D.D.D.T.I.P.p.n > 2 #.t.H.W.S.W.W.Z.{ > - & - - ",
"= - & @ 8 D V.Q.E.~.^.n.O.h s 3 > > + V w.C.~.D.W.W.Z.9 > & & & ",
"& & % : 2  .W.L.r.y.i.! & : ; 9 0 C _ ( ~ :.q.n.C.S.D.' 4 & & - ",
"& - & 9 J Z.(.K.6...t k 8 Y { Z.v.| !.^.R.D.L.C.C.I.S.Z.8 > & & ",
"& & - >  .P.u.V g x 7 ( 8.m.(.W.Q.(.I.I.W.Q.Q.I.W.W.W.W./ 8 & - ",
"& & w Y x.&.a k 8 7 m <.F.I.I.D.D.D.W.R.D.Q.R.Q.Q.Q.W.W.B.> 9 & ",
"% > >  .9.;.` Z w 7 j 1.F.I.^.Q.D.Q.Q.S.W.D.W.D.D.W.W.W.W.E 8 - ",
"& 9 R S.~.^.(.Z.x.{ _ v i ! p.F.I.Q.Q.~.R.D.~.S.Q.T.W.Q.Q.v.> w ",
"8 6 z.S.S.D.I.E.Q././. .` M p f ) F.G.P.Q.^.S.~.Q.D.Q.T.I.I.Y 9 ",
"0 R S.W.D.D.Q.W.W.W.W.(.(.z.Y q l d f h +.-.W.R.~.D.S.Q.W.!.z.> ",
"> z.W.Q.Q.W.D.Q.W.Q.I.R.Q.~.0.0 q q q n z 4.+.S.R.I.^.D.R.D.Q.{ ",
"{ W.W.D.W.D.R.D.W.D.Q.D.Q.T.~ m w w e w e w 6.+.D.W.E.R.D.I.Q.I.",
"Q.R.D.W.Q.Q.Q.R.I.Q.W.Q.S.Q.S.S.8.w S w w w w 6.+.R.R.Z.Q.W.R.Q.",
"Q.W.Q.D.Q.W.D.D.R.W.Q.I.R.R.N.6.o.m w q q q w +.R.R.Q.I.R.I.R.Q.",
"Q.W.Q.I.R.R.Q.I.Q.Q.I.Q.Q.~.G.N n C w C E 6.+.D.R.E.R.Q.D.W.R.Q.",
"Q.Q.Q.W.Q.I.Q.R.D.Q.Q.Q.D.!.M.Z D Z C m ~ I.~.v.Q.D.R.I.Q.Q.I.Q.",
"Q.Q.W.Q.W.Q.D.W.I.W.W.W.~.M.B s.j.g.S D r v C.^.(.Q.D.W.D.Q.Q.Q.",
"_ _ _ _ _ _ _ _ _ _ _ _ _ V s.l.l.l.d.J I 3 l _ _ _ _ _ _ _ _ _ ",
"Y Y Y Y Y Y Y Y Y Y Y L Y F k.l.l.l.k.F F U n Y Y Y Y Y Y Y Y Y ",
"L I Y Y Y Y Y U K K I I U P h.l.l.l.h.U L K K L Y L Y L Y Y Y Y ",
"L K Y J K K U U I I K U U P T h.k.h.D T I I U K K K I J I K K K ",
"Y Y Y Y Y Y Y Y Y Y Y Y Y Y P P T Y Y T Y Y Y Y Y Y Y Y Y Y Y Y "
};
