/* XPM */
static char *shatteriticon[] = {
/* columns rows colors chars-per-pixel */
"32 32 2 1",
"  c #5A5A5F",
". c #E2E2E2",
/* pixels */
"               .. ..            ",
"             ..  .  ..          ",
"           ..    .    ...       ",
"        ...      .       ..     ",
"     ....        ..   .......   ",
"   ..   .        ......      .  ",
" ..    ...........         .... ",
"........        ....      ..   .",
". ..           ..  ...  ..     .",
".  ....        .     ...       .",
".  .  ...     ..    .. .      ..",
".   .   ..    .   ...  .     . .",
".   ..    .. .   ..    .    .  .",
".    .      .. ..      .   ..  .",
".    ..     ...        ....  . .",
".     .    .. .        ..     ..",
"..    .    .  .       ..      ..",
"...   .  ..   .      ...      ..",
". ... ....... .     .. .     .. ",
".   ... .   ...     .  .     .  ",
" .   .. .    ........  ..   .   ",
"  .   . .     .    .    .  .    ",
"   .  ...     .    .    . .     ",
"    .  ..     .    .    ..      ",
"     .  .     .    .   .        ",
"      . .     .   ... .         ",
"       ..     .   . ..          ",
"        ..    .  .  .           ",
"         ..   .  . .            ",
"          ..  . . .             ",
"           .. . ..              ",
"             ...                "
};
