/* XPM */
static char *logoMax[] = {
/* columns rows colors chars-per-pixel */
"100 72 256 2",
"   c black",
".  c #800000",
"X  c #008000",
"o  c #808000",
"O  c navy",
"+  c #800080",
"@  c #008080",
"#  c #808080",
"$  c #C0DCC0",
"%  c #A6CAF0",
"&  c #2A3FAA",
"*  c #2A3FFF",
"=  c #2A5F00",
"-  c #2A5F55",
";  c #2A5FAA",
":  c #2A5FFF",
">  c #2A7F00",
",  c #2A7F55",
"<  c #2A7FAA",
"1  c #2A7FFF",
"2  c #2A9F00",
"3  c #2A9F55",
"4  c #2A9FAA",
"5  c #2A9FFF",
"6  c #2ABF00",
"7  c #2ABF55",
"8  c #2ABFAA",
"9  c #2ABFFF",
"0  c #2ADF00",
"q  c #2ADF55",
"w  c #2ADFAA",
"e  c #2ADFFF",
"r  c #2AFF00",
"t  c #2AFF55",
"y  c #2AFFAA",
"u  c #2AFFFF",
"i  c #550000",
"p  c #550055",
"a  c #5500AA",
"s  c #5500FF",
"d  c #551F00",
"f  c #551F55",
"g  c #551FAA",
"h  c #551FFF",
"j  c #553F00",
"k  c #553F55",
"l  c #553FAA",
"z  c #553FFF",
"x  c #555F00",
"c  c #555F55",
"v  c #555FAA",
"b  c #555FFF",
"n  c #557F00",
"m  c #557F55",
"M  c #557FAA",
"N  c #557FFF",
"B  c #559F00",
"V  c #559F55",
"C  c #559FAA",
"Z  c #559FFF",
"A  c #55BF00",
"S  c #55BF55",
"D  c #55BFAA",
"F  c #55BFFF",
"G  c #55DF00",
"H  c #55DF55",
"J  c #55DFAA",
"K  c #55DFFF",
"L  c #55FF00",
"P  c #55FF55",
"I  c #55FFAA",
"U  c #55FFFF",
"Y  c #7F0000",
"T  c #7F0055",
"R  c #7F00AA",
"E  c #7F00FF",
"W  c #7F1F00",
"Q  c #7F1F55",
"!  c #7F1FAA",
"~  c #7F1FFF",
"^  c #7F3F00",
"/  c #7F3F55",
"(  c #7F3FAA",
")  c #7F3FFF",
"_  c #7F5F00",
"`  c #7F5F55",
"'  c #7F5FAA",
"]  c #7F5FFF",
"[  c #7F7F00",
"{  c #7F7F55",
"}  c #7F7FAA",
"|  c #7F7FFF",
" . c #7F9F00",
".. c #7F9F55",
"X. c #7F9FAA",
"o. c #7F9FFF",
"O. c #7FBF00",
"+. c #7FBF55",
"@. c #7FBFAA",
"#. c #7FBFFF",
"$. c #7FDF00",
"%. c #7FDF55",
"&. c #7FDFAA",
"*. c #7FDFFF",
"=. c chartreuse",
"-. c #7FFF55",
";. c #7FFFAA",
":. c #7FFFFF",
">. c #AA0000",
",. c #AA0055",
"<. c #AA00AA",
"1. c #AA00FF",
"2. c #AA1F00",
"3. c #AA1F55",
"4. c #AA1FAA",
"5. c #AA1FFF",
"6. c #AA3F00",
"7. c #AA3F55",
"8. c #AA3FAA",
"9. c #AA3FFF",
"0. c #AA5F00",
"q. c #AA5F55",
"w. c #AA5FAA",
"e. c #AA5FFF",
"r. c #AA7F00",
"t. c #AA7F55",
"y. c #AA7FAA",
"u. c #AA7FFF",
"i. c #AA9F00",
"p. c #AA9F55",
"a. c #AA9FAA",
"s. c #AA9FFF",
"d. c #AABF00",
"f. c #AABF55",
"g. c #AABFAA",
"h. c #AABFFF",
"j. c #AADF00",
"k. c #AADF55",
"l. c #AADFAA",
"z. c #AADFFF",
"x. c #AAFF00",
"c. c #AAFF55",
"v. c #AAFFAA",
"b. c #AAFFFF",
"n. c #D40000",
"m. c #D40055",
"M. c #D400AA",
"N. c #D400FF",
"B. c #D41F00",
"V. c #D41F55",
"C. c #D41FAA",
"Z. c #D41FFF",
"A. c #D43F00",
"S. c #D43F55",
"D. c #D43FAA",
"F. c #D43FFF",
"G. c #D45F00",
"H. c #D45F55",
"J. c #D45FAA",
"K. c #D45FFF",
"L. c #D47F00",
"P. c #D47F55",
"I. c #D47FAA",
"U. c #D47FFF",
"Y. c #D49F00",
"T. c #D49F55",
"R. c #D49FAA",
"E. c #D49FFF",
"W. c #D4BF00",
"Q. c #D4BF55",
"!. c #D4BFAA",
"~. c #D4BFFF",
"^. c #D4DF00",
"/. c #D4DF55",
"(. c #D4DFAA",
"). c #D4DFFF",
"_. c #D4FF00",
"`. c #D4FF55",
"'. c #D4FFAA",
"]. c #D4FFFF",
"[. c #FF0055",
"{. c #FF00AA",
"}. c #FF1F00",
"|. c #FF1F55",
" X c #FF1FAA",
".X c #FF1FFF",
"XX c #FF3F00",
"oX c #FF3F55",
"OX c #FF3FAA",
"+X c #FF3FFF",
"@X c #FF5F00",
"#X c #FF5F55",
"$X c #FF5FAA",
"%X c #FF5FFF",
"&X c #FF7F00",
"*X c #FF7F55",
"=X c #FF7FAA",
"-X c #FF7FFF",
";X c #FF9F00",
":X c #FF9F55",
">X c #FF9FAA",
",X c #FF9FFF",
"<X c #FFBF00",
"1X c #FFBF55",
"2X c #FFBFAA",
"3X c #FFBFFF",
"4X c #FFDF00",
"5X c #FFDF55",
"6X c #FFDFAA",
"7X c #FFDFFF",
"8X c #FFFF55",
"9X c #FFFFAA",
"0X c #CCCCFF",
"qX c #FFCCFF",
"wX c #33FFFF",
"eX c #66FFFF",
"rX c #99FFFF",
"tX c #CCFFFF",
"yX c #007F00",
"uX c #007F55",
"iX c #007FAA",
"pX c #007FFF",
"aX c #009F00",
"sX c #009F55",
"dX c #009FAA",
"fX c #009FFF",
"gX c #00BF00",
"hX c #00BF55",
"jX c #00BFAA",
"kX c DeepSkyBlue",
"lX c #00DF00",
"zX c #00DF55",
"xX c #00DFAA",
"cX c #00DFFF",
"vX c #00FF55",
"bX c #00FFAA",
"nX c #2A0000",
"mX c #2A0055",
"MX c #2A00AA",
"NX c #2A00FF",
"BX c #2A1F00",
"VX c #2A1F55",
"CX c #2A1FAA",
"ZX c #2A1FFF",
"AX c #2A3F00",
"SX c #2A3F55",
"DX c #FFFBF0",
"FX c #A0A0A4",
"GX c #808080",
"HX c red",
"JX c green",
"KX c yellow",
"LX c blue",
"PX c magenta",
"IX c cyan",
"UX c gray100",
/* pixels */
"UXUXUXUXUXUXUXUXUXUXUXUXUXUXUXUXUXUXUXUXUXUXUXUXUXUXUXUXUXUXUXUXUXUXUXUXUXUXUXUXUXUXUXUXUXUXUXUXUXUXUXUXUXUXUXUXUXUXUXUXUXUXUXUXUXUXUXUXUXUXUXUXUXUXUXUXUXUXUXUXUXUXUXUXUXUXUXUXUXUXUXUXUXUXUXUXUXUXUXUX",
"UXUXUXUXUXUXUXUXUXUXUXUXUXUXUXUXUXUXUXUXUXUXUXUXUXUXUXUXUXUXUXUXUXUXUXUXUXUXUXUXUXUXUXUXUXUXUXUXUXUXUXUXUXUXUXUXUXUXUXUXUXUXUXUXUXUXUXUXUXUXUXUXUXUXUXUXUXUXUXUXUXUXUXUXUXUXUXUXUXUXUXUXUXUXUXUXUXUXUXUX",
"UXUXUXUXUXUXUXUXUXUXUXUXUXUXUXUXUXUXUXUXUXUXUXUXUXUXUXUXUXUXUXUXUXUXUXUXUXUXUXUXUXUXUXUXUXUXUXUXUXUXz.).UXUXUXUXUXUXUXUXUXUXUXUXUXUXUXUXUXUXUXUXUXUXUXUXUXUXUXUXUXUXUXUXUXUXUXUXUXUXUXUXUXUXUXUXUXUXUXUX",
"UXUXUXUXUXUXUXUXUXUXUXUXUXUXUXUXUXUXUXUXUXUXUXUXUXUXUXUXUXUXUXUXUXUXUXUXUXUXUXUXUXUXUXUXUXUXUXUXUXUX5 pX5 F z.UXUXUXUXUXUX].% % % % % % % % % % % z.UXUXUXUXUXUXUXUX% % % % % % % % % % % z.UXUXUXUXUXUX",
"UXUXUXUXUXUXUXUXUXUXUXUXUXUXUXUXUXUXUXUXUXUXUXUXUXUXUXUXUXUXUXUXUXUXUXUXUXUXUXUXUXUXUXUXUXUXUXUXUX).fXfXfXfXfX5 F z.UXUXUXz.fXfXfXfXfXfXfXfXfXfXpX#.UXUXUXUXUXUXUX].fXfXfXfXfXfXfXfXfXfXfX5 UXUXUXUXUXUX",
"UXUXUXUXUXUXUXUXUXUXUXUXUXUXUXUXUXUXUXUXUXUXUXUXUXUXUXUXUXUXUXUXUXUXUXUXUX).UXUXUXUXUXUXUXUXUXUXUX#.fXfXfXfXfXfXfXfXfXF z.% fXfXfXfXfXfXfXfXfXfXfX#.UXUXUXUXUXUXUXUXfXfXfXfXfXfXfXfXfXfXfX5 UXUXUXUXUXUX",
"UXUXUXUXUXUXUXUXUXUXUXUXUXUXUXUXUXUXUXUXUXUXUXUXUXUXUXUXUXUXUXUXUXUXUXUX].fX5 ).UXUXUXUXUXUXUXUXUX5 fXfXfXfXfXfXfXfXfXfXfX5 fXfXfXfXfXfXfXfXfXfXfX#.UXUXUXUXUXUXUXUXfXfXfXfXfXfXfXfXfXfXfX5 UXUXUXUXUXUX",
"UXUXUXUXUXUXUXUXUXUXUXUXUXUXUXUXUXUXUXUXUXUXUXUXUXUXUXUXUXUXUXUXUXUXUXUXF fXfXfX#.UXUXUXUXUXUXUX).fXfXfXfXfXfXfXfXfXfXfXfX5 fXfXfXfXfXfXfXfXfXfXfX#.UXUXUXUXUXUXUXUXfXfXfXfXfXfXfXfXfXfXfX5 UXUXUXUXUXUX",
"UXUXUXUXUXUXUXUXUXUXUXUXUXUXUXUXUXUXUXUXUXUXUXUXUXUXUXUXUXUXUXUXUXUXUX% fXfXfXfXpX5 z.UXUXUXUXUX% fXfXfXfXfXfXfXfXfXfXfX5 #.fXfXfXfXfXfXfXfXfXfXfX#.UXUXUXUXUXUXUXUXfXfXfXfXfXfXfXfXfXfXfX5 UXUXUXUXUXUX",
"UXUXUXUXUXUXUXUXUXUXUXUXUXUXUXUXUXUXUXUXUXUXUXUXUXUXUXUXUXUXUXUXUXUX].5 fXfXfXfXfXfXfXF UXUXUXUX5 fXfXfXfXfXfXfXfXfXfXfXF % fXfXfXfXfXfXfXfXfXfXfX#.UXUXUXUXUXUXUXUXfXfXfXfXfXfXfXfXfXfXfX5 UXUXUXUXUXUX",
"UXUXUXUXUXUXUXUXUXUXUXUXUXUXUXUXUXUXUXUXUXUXUXUXUXUXUXUXUXUXUXUXUXUXF fXfXfXfXfXfXfXfXfX5 z.UX).fXfXfXfXfXfXfXfXfXfXfXfXz.% fXfXfXfXfXfXfXfXfXfXfX#.UXUXUXUXUXUXUXUXfXfXfXfXfXfXfXfXfXfXfX5 UXUXUXUXUXUX",
"UXUXUXUXUXUXUXUXUXUXUXUXUXUXUXUXUXUXUXUXUXUXUXUXUXUXUXUXUXUXUXUXUXz.fXfXfXfXfXfXfXfXfXfXfXfX#.#.fXfXfXfXfXfXfXfXfXfXfXfX].% fXfXfXfXfXfXfXfXfXfXfX#.UXUXUXUXUXUXUXUXfXfXfXfXfXfXfXfXfXfXfX5 UXUXUXUXUXUX",
"UXUXUXUXUXUXUXUXUXUXUXUXUXUXUXUXUXUXUXUXUXUXUXUXUXUXUXUXUXUXUXUXUX5 fXfXfXfXfXfXfXfXfXfXfXfXfX5 fXfXfXfXfXfXfXfXfXfXfXF UX% fXfXfXfXfXfXfXfXfXfXfX#.UXUXUXUXUXUXUXUXfXfXfXfXfXfXfXfXfXfXfX5 UXUXUXUXUXUX",
"UXUXUXUXUXUXUXUXUXUXUXUXUXUXUXUXUXUXUXUXUXUXUXUXUXUXUXUXUXUXUXUXF fXfXfXfXfXfXfXfXfXfXfXfXfXF fXfXfXfXfXfXfXfXfXfXfXfX% UX% fXfXfXfXfXfXfXfXfXfXfX#.UXUXUXUXUXUXUXUXfXfXfXfXfXfXfXfXfXfXfX5 UXUXUXUXUXUX",
"UXUXUXUXUXUXUXUXUXUXUXUXUXUXUXUXUXUXUXUXUXUXUXUXUXUXUXUXUXUXUXz.fXfXfXfXfXfXfXfXfXfXfXfXfX5 #.fXfXfXfXfXfXfXfXfXfXfXfX).UX% fXfXfXfXfXfXfXfXfXfXfX#.UXUXUXUXUXUXUXUXfXfXfXfXfXfXfXfXfXfXfX5 UXUXUXUXUXUX",
"UXUXUXUXUXUXUXUXUXUXUXUXUXUXUXUXUXUXUXUXUXUXUXUXUXUXUXUXUXUXUX5 fXfXfXfXfXfXfXfXfXfXfXfXfXz.F fXfXfXfXfXfXfXfXfXfXfX5 UXUX% fXfXfXfXfXfXfXfXfXfXfX#.UXUXUXUXUXUXUXUXfXfXfXfXfXfXfXfXfXfXfX5 UXUXUXUXUXUX",
"UXUXUXUXUXUXUXUXUXUXUXUXUXUXUXUXUXUXUXUXUXUXUXUXUXUXUXUXUXUX#.fXfXfXfXfXfXfXfXfXfXfXfXfXF ].fXfXfXfXfXfXfXfXfXfXfXfX#.UXUX% fXfXfXfXfXfXfXfXfXfXfX#.UXUXUXUXUXUXUXUXfXfXfXfXfXfXfXfXfXfXfX5 UXUXUXUXUXUX",
"UXUXUXUXUXUXUXUXUXUXUXUXUXUXUXUXUXUXUXUXUXUXUXUXUXUXUXUXUX).fXfXfXfXfXfXfXfXfXfXfXfXfX5 UXz.pXfXfXfXfXfXfXfXfXfXfXfX).UXUX% fXfXfXfXfXfXfXfXfXfXfX#.UXUXUXUXUXUXUXUXfXfXfXfXfXfXfXfXfXfXfX5 UXUXUXUXUXUX",
"UXUXUXUXUXUXUXUXUXUXUXUXUXUXUXUXUXUXUXUXUXUXUXUXUXUXUXUXUX5 fXfXfXfXfXfXfXfXfXfXfXfXfX% UXF fXfXfXfXfXfXfXfXfXfXfX5 UXUXUX% fXfXfXfXfXfXfXfXfXfXfX#.UXUXUXUXUXUXUXUXfXfXfXfXfXfXfXfXfXfXfX5 UXUXUXUXUXUX",
"UXUXUXUXUXUXUXUXUXUXUXUXUXUXUXUXUXUXUXUXUXUXUXUXUXUXUXUX#.fXfXfXfXfXfXfXfXfXfXfXfXfXF UX].5 fXfXfXfXfXfXfXfXfXfXfX#.UXUXUX% fXfXfXfXfXfXfXfXfXfXfX#.UXUXUXUXUXUXUXUXfXfXfXfXfXfXfXfXfXfXfX5 UXUXUXUXUXUX",
"UXUXUXUXUXUXUXUXUXUXUXUXUXUXUXUXUXUXUXUXUXUXUXUXUXUXUX).fXfXfXfXfXfXfXfXfXfXfXfXfXfX).UXz.fXfXfXfXfXfXfXfXfXfXfXfX).UXUXUX% fXfXfXfXfXfXfXfXfXfXfX#.UXUXUXUXUXUXUXUXfXfXfXfXfXfXfXfXfXfXfX5 UXUXUXUXUXUX",
"UXUXUXUXUXUXUXUXUXUXUXUXUXUXUXUXUXUXUXUXUXUXUXUXUXUXUX9 fXfXfXfXfXfXfXfXfXfXfXfXfX% UXUXF fXfXfXfXfXfXfXfXfXfXfX5 UXUXUXUX% fXfXfXfXfXfXfXfXfXfXfX#.UXUXUXUXUXUXUXUXfXfXfXfXfXfXfXfXfXfXfX5 UXUXUXUXUXUX",
"UXUXUXUXUXUXUXUXUXUXUXUXUXUXUXUXUXUXUXUXUXUXUXUXUXUX% pXfXfXfXfXfXfXfXfXfXfXfXfX5 UXUXUX5 fXfXfXfXfXfXfXfXfXfXfX#.UXUXUXUX% fXfXfXfXfXfXfXfXfXfXfX#.UXUXUXUXUXUXUXUXfXfXfXfXfXfXfXfXfXfXfX5 UXUXUXUXUXUX",
"UXUXUXUXUXUXUXUXUXUXUXUXUXUXUXUXUXUXUXUXUXUXUXUXUX].fXfXfXfXfXfXfXfXfXfXfXfXfXfX).UXUXz.fXfXfXfXfXfXfXfXfXfXfXfX).UXUXUXUX% fXfXfXfXfXfXfXfXfXfXfX#.UXUXUXUXUXUXUXUXfXfXfXfXfXfXfXfXfXfXfX5 UXUXUXUXUXUX",
"UXUXUXUXUXUXUXUXUXUXUXUXUXUXUXUXUXUXUXUXUXUXUXUXUXF fXfXfXfXfXfXfXfXfXfXfXfXfX#.UXUXUXF pXfXfXfXfXfXfXfXfXfXfX5 UXUXUXUXUX% fXfXfXfXfXfXfXfXfXfXfX#.UXUXUXUXUXUXUXUXfXfXfXfXfXfXfXfXfXfXfX5 UXUXUXUXUXUX",
"UXUXUXUXUXUXUXUXUXUXUXUXUXUXUXUXUXUXUXUXUXUXUXUXz.fXfXfXfXfXfXfXfXfXfXfXfXfX5 UXUXUXUX5 fXfXfXfXfXfXfXfXfXfXfX#.UXUXUXUXUX% fXfXfXfXfXfXfXfXfXfXfX#.UXUXUXUXUXUXUXUXfXfXfXfXfXfXfXfXfXfXfX5 UXUXUXUXUXUX",
"UXUXUXUXUXUXUXUXUXUXUXUXUXUXUXUXUXUXUXUXUXUXUX].5 fXfXfXfXfXfXfXfXfXfXfXfXfX).UXUXUXz.fXfXfXfXfXfXfXfXfXfXfXfX).UXUXUXUXUX% fXfXfXfXfXfXfXfXfXfXfX#.UXUXUXUXUXUXUXUXfXfXfXfXfXfXfXfXfXfXfX5 UXUXUXUXUXUX",
"UXUXUXUXUXUXUXUXUXUXUXUXUXUXUXUXUXUXUXUXUXUXUXF fXfXfXfXfXfXfXfXfXfXfXfXfX#.UXUXUXUX#.fXfXfXfXfXfXfXfXfXfXfX5 UXUXUXUXUXUX% fXfXfXfXfXfXfXfXfXfXfX#.UXUXUXUXUXUXUXUXfXfXfXfXfXfXfXfXfXfXfX5 UXUXUXUXUXUX",
"UXUXUXUXUXUXUXUXUXUXUXUXUXUXUXUXUXUXUXUXUXUXz.fXfXfXfXfXfXfXfXfXfXfXfXfX5 UXUXUXUXUX5 fXfXfXfXfXfXfXfXfXfXfXF UXUXUXUXUXUX% fXfXfXfXfXfXfXfXfXfXfX#.UXUXUXUXUXUXUX].fXfXfXfXfXfXfXfXfXfXfXF UXUXUXUXUXUX",
"UXUXUXUXUXUXUXUXUXUXUXUXUXUXUXUXUXUXUXUXUXUX5 fXfXfXfXfXfXfXfXfXfXfXfXfXz.UXUXUXUX).fXfXfXfXfXfXfXfXfXfXfXfXz.UXUXUXUXUXUX% fXfXfXfXfXfXfXfXfXfXfX#.UXUXUXUXUXUXUX).fXfXfXfXfXfXfXfXfXfXfXF UXUXUXUXUXUX",
"UXUXUXUXUXUXUXUXUXUXUXUXUXUXUXUXUXUXUXUXUX#.fXfXfXfXfXfXfXfXfXfXfXfXpXF UXUXUXUXUX#.fXfXfXfXfXfXfXfXfXfXfX5 UXUXUXUXUXUXUX% fXfXfXfXfXfXfXfXfXfXfX#.UXUXUXUXUXUXUX).fXfXfXfXfXfXfXfXfXfXfXF UXUXUXUXUXUX",
"UXUXUXUXUXUXUXUXUXUXUXUXUXUXUXUXUXUXUXUX).fXfXfXfXfXfXfXfXfXfXfXfXfX5 UXUXUXUXUXUX5 fXfXfXfXfXfXfXfXfXfXfXF UXUXUXUXUXUXUX% fXfXfXfXfXfXfXfXfXfXfX#.UXUXUXUXUXUXUX).fXfXfXfXfXfXfXfXfXfXfXF UXUXUXUXUXUX",
"UXUXUXUXUXUXUXUXUXUXUXUXUXUXUXUXUXUXUXUX5 fXfXfXfXfXfXfXfXfXfXfXfXfXz.UXUXUXUXUX).fXfXfXfXfXfXfXfXfXfXfXfXz.UXUXUXUXUXUXUX% fXfXfXfXfXfXfXfXfXfXfX#.UXUXUXUXUXUXUX).fXfXfXfXfXfXfXfXfXfXfXF UXUXUXUXUXUX",
"UXUXUXUXUXUXUXUXUXUXUXUXUXUXUXUXUXUXUX#.fXfXfXfXfXfXfXfXfXfXfXfXfXF UXUXUXUXUXUX#.fXfXfXfXfXfXfXfXfXfXfXfXUXUXUXUXUXUXUXUX% fXfXfXfXfXfXfXfXfXfXfX#.UXUXUXUXUXUXUX).fXfXfXfXfXfXfXfXfXfXfXF UXUXUXUXUXUX",
"UXUXUXUXUXUXUXUXUXUXUXUXUXUXUXUXUXUX).fXfXfXfXfXfXfXfXfXfXfXfXfX5 ].UXUXUXUXUXUX5 fXfXfXfXfXfXfXfXfXfXfXF UXUXUXUXUXUXUXUX% fXfXfXfXfXfXfXfXfXfXfX#.UXUXUXUXUXUXUX).fXfXfXfXfXfXfXfXfXfXfXF UXUXUXUXUXUX",
"UXUXUXUXUXUXUXUXUXUXUXUXUXUXUXUXUXUX5 fXfXfXfXfXfXfXfXfXfXfXfXfX% UXUXUXUXUXUX).fXfXfXfXfXfXfXfXfXfXfXfX% UXUXUXUXUXUXUXUX% fXfXfXfXfXfXfXfXfXfXfX#.UXUXUXUXUXUXUX).fXfXfXfXfXfXfXfXfXfXfXF UXUXUXUXUXUX",
"UXUXUXUXUXUXUXUXUXUXUXUXUXUXUXUXUX#.fXfXfXfXfXfXfXfXfXfXfXfXfXF UXUXUXUXUXUXUX#.pXfXfXfXfXfXfXfXfXfXfXfX].UXUXUXUXUXUXUXUX% fXfXfXfXfXfXfXfXfXfXfX#.UXUXUXUXUXUXUX).fXfXfXfXfXfXfXfXfXfXfXF UXUXUXUXUXUX",
"UXUXUXUXUXUXUXUXUXUXUXUXUXUXUXUX).fXfXfXfXfXfXfXfXfXfXfXfXfXfX].UXUXUXUXUXUXUX5 fXfXfXfXfXfXfXfXfXfXfXF UXUXUXUXUXUXUXUXUX% fXfXfXfXfXfXfXfXfXfXfX#.UXUXUXUXUXUXUX).fXfXfXfXfXfXfXfXfXfXfXF UXUXUXUXUXUX",
"UXUXUXUXUXUXUXUXUXUXUXUXUXUXUXUXF fXfXfXfXfXfXfXfXfXfXfXfXfX% UXUXUXUXUXUXUX].fXfXfXfXfXfXfXfXfXfXfXpX% UXUXUXUXUXUXUXUXUX% fXfXfXfXfXfXfXfXfXfXfX#.UXUXUXUXUXUXUX).fXfXfXfXfXfXfXfXfXfXfXF UXUXUXUXUXUX",
"UXUXUXUXUXUXUXUXUXUXUXUXUXUXUX% fXfXfXfXfXfXfXfXfXfXfXfXfX5 UXUXUXUXUXUXUXUX% fXfXfXfXfXfXfXfXfXfXfXfX).UXUXUXUXUXUXUXUXUX% fXfXfXfXfXfXfXfXfXfXfX#.UXUXUXUXUXUXUX).fXfXfXfXfXfXfXfXfXfXfXF UXUXUXUXUXUX",
"UXUXUXUXUXUXUXUXUXUXUXUXUXUX).fXfXfXfXfXfXfXfXfXfXfXfXfXfX).UXUXUXUXUXUXUXUXF fXfXfXfXfXfXfXfXfXfXfX5 UXUXUXUXUXUXUXUXUXUX% fXfXfXfXfXfXfXfXfXfXfX#.UXUXUXUXUXUXUX).fXfXfXfXfXfXfXfXfXfXfXF UXUXUXUXUXUX",
"UXUXUXUXUXUXUXUXUXUXUXUXUXUXF fXfXfXfXfXfXfXfXfXfXfXfXfX#.UXUXUXUXUXUXUXUX].fXfXfXfXfXfXfXfXfXfXfXfX% UXUXUXUXUXUXUXUXUXUX% fXfXfXfXfXfXfXfXfXfXfX#.UXUXUXUXUXUXUX).fXfXfXfXfXfXfXfXfXfXfXF UXUXUXUXUXUX",
"UXUXUXUXUXUXUXUXUXUXUXUXUX% pXfXfXfXfXfXfXfXfXfXfXfXfX5 UXUXUXUXUXUXUXUXUX% fXfXfXfXfXfXfXfXfXfXfXfX).UXUXUXUXUXUXUXUXUXUX% fXfXfXfXfXfXfXfXfXfXfX#.UXUXUXUXUXUXUX).fXfXfXfXfXfXfXfXfXfXfXF UXUXUXUXUXUX",
"UXUXUXUXUXUXUXUXUXUXUXUX].5 fXfXfXfXfXfXfXfXfXfXfXfXfX).UXUXUXUXUXUXUXUXUXF fXfXfXfXfXfXfXfXfXfXfX5 UXUXUXUXUXUXUXUXUXUXUX% fXfXfXfXfXfXfXfXfXfXfX#.UXUXUXUXUXUXUX).fXfXfXfXfXfXfXfXfXfXfXF UXUXUXUXUXUX",
"UXUXUXUXUXUXUXUXUXUXUXUXF fXfXfXfXfXfXfXfXfXfXfXfXfX#.UXUXUXUXUXUXUXUXUX].fXfXfXfXfXfXfXfXfXfXfXfX#.UXUXUXUXUXUXUXUXUXUXUX% fXfXfXfXfXfXfXfXfXfXfX#.UXUXUXUXUXUXUX).fXfXfXfXfXfXfXfXfXfXfXF UXUXUXUXUXUX",
"UXUXUXUXUXUXUXUXUXUXUXz.fXfXfXfXfXfXfXfXfXfXfXfXfX5 UXUXUXUXUXUXUXUXUXUXz.fXfXfXfXfXfXfXfXfXfXfXfX).UXUXUXUXUXUXUXUXUXUXUX% fXfXfXfXfXfXfXfXfXfXfX#.UXUXUXUXUXUXUX).fXfXfXfXfXfXfXfXfXfXfXF UXUXUXUXUXUX",
"UXUXUXUXUXUXUXUXUXUXUX5 fXfXfXfXfXfXfXfXfXfXfXfXfXz.UXUXUXUXUXUXUXUXUXUXF fXfXfXfXfXfXfXfXfXfXfX5 UXUXUXUXUXUXUXUXUXUXUXUX% fXfXfXfXfXfXfXfXfXfXfX#.UXUXUXUXUXUXUX).fXfXfXfXfXfXfXfXfXfXfXF UXUXUXUXUXUX",
"UXUXUXUXUXUXUXUXUXUX#.fXfXfXfXfXfXfXfXfXfXfXfXfXF UXUXUXUXUXUXUXUXUXUX].5 fXfXfXfXfXfXfXfXfXfXfX#.UXUXUXUXUXUXUXUXUXUXUXUX% fXfXfXfXfXfXfXfXfXfXfX#.UXUXUXUXUXUXUX).fXfXfXfXfXfXfXfXfXfXfXF UXUXUXUXUXUX",
"UXUXUXUXUXUXUXUXUXz.fXfXfXfXfXfXfXfXfXfXfXfXfX5 ].UXUXUXUXUXUXUXUXUXUXz.fXfXfXfXfXfXfXfXfXfXfXfX).UXUXUXUXUXUXUXUXUXUXUXUX% fXfXfXfXfXfXfXfXfXfXfX#.UXUXUXUXUXUXUX).fXfXfXfXfXfXfXfXfXfXfXF UXUXUXUXUXUX",
"UXUXUXUXUXUXUXUXUX5 fXfXfXfXfXfXfXfXfXfXfXfXfXz.UXUXUXUXUXUXUXUXUXUXUXF fXfXfXfXfXfXfXfXfXfXfX5 UXUXUXUXUXUXUXUXUXUXUXUXUX% fXfXfXfXfXfXfXfXfXfXfX#.UXUXUXUXUXUXUX).fXfXfXfXfXfXfXfXfXfXfXF UXUXUXUXUXUX",
"UXUXUXUXUXUXUXUX].5 fXfXfXfXfXfXfXfXfXfXfXfXF UXUXUXUXUXUXUXUXUXUXUXUX5 fXfXfXfXfXfXfXfXfXfXfX#.UXUXUXUXUXUXUXUXUXUXUXUXUX% fXfXfXfXfXfXfXfXfXfXfX#.UXUXUXUXUXUXUX).fXfXfXfXfXfXfXfXfXfXfXF UXUXUXUXUXUX",
"UXUXUXUXUXUXUXUXUXUX% fXfXfXfXfXfXfXfXfXfX5 ].UXUXUXUXUXUXUXUXUXUXUXz.fXfXfXfXfXfXfXfXfXfXfXfXz.UXUXUXUXUXUXUXUXUXUXUXUXUX% fXfXfXfXfXfXfXfXfXfXfX#.UXUXUXUXUXUXUX).fXfXfXfXfXfXfXfXfXfXfXF UXUXUXUXUXUX",
"UXUXUXUXUXUXUXUXUXUXUX].F fXfXfXfXfXfXfXfX% UXUXUXUXUXUXUXUXUXUXUXUX#.pXfXfXfXfXfXfXfXfXfXfX5 UXUXUXUXUXUXUXUXUXUXUXUXUXUX% fXfXfXfXfXfXfXfXfXfXfX#.UXUXUXUXUXUXUX).fXfXfXfXfXfXfXfXfXfXfXF UXUXUXUXUXUX",
"UXUXUXUXUXUXUXUXUXUXUXUXUX% fXfXfXfXfXfXF UXUXUXUXUXUXUXUXUXUXUXUXUX).#.5 fXfXfXfXfXfXfXfXfX#.UXUXUXUXUXUXUXUXUXUXUXUXUXUX% fXfXfXfXfXfXfXfXfXfXfX#.UXUXUXUXUXUXUX).fXfXfXfXfXfXfXfXfXfXfXF UXUXUXUXUXUX",
"UXUXUXUXUXUXUXUXUXUXUXUXUXUX].F fXfXfXfX).UXUXUXUXUXUXUXUXUXUXUXUXUXUXUXUX).#.5 fXfXfXfXfXfXz.UXUXUXUXUXUXUXUXUXUXUXUXUXUX% fXfXfXfXfXfXfXfXfXfXfX#.UXUXUXUXUXUXUX).fXfXfXfXfXfXfXfXfXfXfXF UXUXUXUXUXUX",
"UXUXUXUXUXUXUXUXUXUXUXUXUXUXUXUXz.5 pX% UXUXUXUXUXUXUXUXUXUXUXUXUXUXUXUXUXUXUXUX].% 9 fXpX5 UXUXUXUXUXUXUXUXUXUXUXUXUXUXUX*.pXfXfXfXfXfXfXfXfXfXpX#.UXUXUXUXUXUXUX).fXfXfXfXfXfXfXfXfXfXpXF UXUXUXUXUXUX",
"UXUXUXUXUXUXUXUXUXUXUXUXUXUXUXUXUX].*.UXUXUXUXUXUXUXUXUXUXUXUXUXUXUXUXUXUXUXUXUXUXUXUX].% % UXUXUXUXUXUXUXUXUXUXUXUXUXUXUXz.F F F F F F F F F F F z.UXUXUXUXUXUXUX].F F F F F F F F F F F #.UXUXUXUXUXUX",
"UXUXUXUXUXUXUXUXUXUXUXUXUXUXUXUXUXUXUXUXUXUXUXUXUXUXUXUXUXUXUXUXUXUXUXUXUXUXUXUXUXUXUXUXUXUXUXUXUXUXUXUXUXUXUXUXUXUXUXUXUXUXUXUXUXUXUXUXUXUXUXUXUXUXUXUXUXUXUXUXUXUXUXUXUXUXUXUXUXUXUXUXUXUXUXUXUXUXUXUX",
"UXUXUXUXUXUXUXUXUXUXUXUXUXUXUXUXUXUXUXUXUXUXUXUXUXUXUXUXUXUXUXUXUXUXUXUXUXUXUXUXUXUXUXUXUXUXUXUXUXUXUXUXUXUXUXUXUXUXUXUXUXUXUXUXUXUXUXUXUXUXUXUXUXUXUXUXUXUXUXUXUXUXUXUXUXUXUXUXUXUXUXUXUXUXUXUXUXUXUXUX",
"UXUXUXUXUXUXUXUXUXUXUXUXUXUXUXUXUXUXUXUXUXUXUXUXUXUXUXUXUXUXUXUXUXUXUXUXUXUXUXUXUXUXUXUXUXUXUXUXUXUXUXUXUXUXUXUXUXUXUXUXUXUXUXUXUXUXUXUXUXUXUXUXUXUXUXUXUXUXUXUXUXUXUXUXUXUXUXUXUXUXUXUXUXUXUXUXUXUXUXUX",
"UXUXUXUXUXUXUX).k c c c c c c c $ # c ).UXUXUXg.c FXUX$ c # UX$ c c DXUXUXUXg.c g.UXFXc g.UXUX$ c c a.UXFXFXUX).c # DXUXUXUX$ # DXUX# c c c c c c $ c c c c c c c # DX# a.UXUXUX$ # c k c FXDXUXUXUXUXUX",
"UXUXUXUXUXUXUX$ BXVXBX    VXBXSX).SX  DXUXUXUXg.  ` UX$   c UX$     # UXUXUXa.  FXUX#   g.UX).k   c DXUX# c UXDXBXBXg.UXUXUX$ SXUXUXc c g.g.g.g.a.$ a.g.g.SXc g.a.g.UXk FXUXUXFXBXFX$ $ g.k SXDXUXUXUXUX",
"UXUXUXUXUXUXUXUXDXUXDXBXBXUXUXDXDXSX  DXUXUXUX$   # UX$   c UX$       FXUXUXa.  FXUX#   $ $ BX  FXUXUXUX# ` UXDXBXg.BX$ UXUX$ SXUXUXc FXUXUXUXUXUXUXUXUXUXc FXUXUXUXUXk FXUX$ BX).UXUXUXUXDX$ UXUXUXUXUX",
"UXUXUXUXUXUXUXUXUXUXDXBXBXUXUXUXUXSX  FXFXFXFX#   # UX$   c UX$   c SX  FXUXa.  FXUX#   c     g.UXUXUXUX# ` UXDXBXUXFXVXDXUX$ SXUXUXc FXDXDX).DXUXUXUXUXUXc FXUXUXUXUXk FXUXc # UXUXUXUXUXUXUXUXUXUXUXUX",
"UXUXUXUXUXUXUXUXUXUXDXBXBXUXUXUXUXSX              # UX$   c UX$   # DXBX  g.g.  FXUX#     BX  # UXUXUXUX# ` UXDXBXDXUX# k UX$ SXUXUXc BXk k SXa.UXUXUXUXUXc FXUXUXUXUXk FXUXk a.UXUXUXUXUXUXUXUXUXUXUXUX",
"UXUXUXUXUXUXUXUXUXUXDXBXBXUXUXUXUXSX  ).).).DXa.  # UX$   c UX$   # UX$     c   FXUX#   c DXk   a.UXUXUX# ` UXDXBXDXUXUXk # $ SXUXUXc FXUXDXDXDXUXUXUXUXUXc FXUXUXUXUXk FXUXc # UXUXUXUXUXUXUXUXUXUXUXUX",
"UXUXUXUXUXUXUXUXUXUXDXBXBXUXUXUXUXSX  DXUXUXUXg.  # UX$   c UX$   # UXUX$ BX    FXUX#   g.UXDXBX  g.UXUX# ` UXDXBXDXUXUXDXSXc k UXUXc FXUXUXUXUXUXUXUXUXUXc FXUXUXUXUXk FXUXg.BX).UXUXUXUXUXFXDXUXUXUXUX",
"UXUXUXUXUXUXUXUXUXUXDX  BXUXUXUXUXSX  DXUXUXUXg.  c UX$   c UX$   # UXUXUXg.    FXUX#   g.UXUX$     $ UX# c UX).BXDXUXUXUX).  VXUXUXc # $ g.g.$ a.DXUXUXUXc FXUXUXUXUXk FXUXUXFXBXFX$ $ g.k SX).UXUXUXUX",
"UXUXUXUXUXUXUXUXUXUX).c c DXUXUXDXc c ).UXUXUXg.k # UX$ k # UX$ k # UXUXUXUX# k a.UX# k g.UXUXUX# k # DX# # UX).c ).UXUXUXUXFXc DXUX# c c c c c SX$ UXUXUX# FXUXUXUXUX# FXUXUXUX$ c k k c FXDXUXUXUXUXUX",
"UXUXUXUXUXUXUXUXUXUXUXUXUXUXUXUXUXUXUXUXUXUXUXUXUXUXUXUXUXUXUXUXUXUXUXUXUXUXUXUXUXUXUXUXUXUXUXUXUXUXUXUXUXUXUXUXUXUXUXUXUXUXUXUXUXUXUXUXUXUXUXUXUXUXUXUXUXUXUXUXUXUXUXUXUXUXUXUXUXUXUXUXUXUXUXUXUXUXUXUX",
"UXUXUXUXUXUXUXUXUXUXUXUXUXUXUXUXUXUXUXUXUXUXUXUXUXUXUXUXUXUXUXUXUXUXUXUXUXUXUXUXUXUXUXUXUXUXUXUXUXUXUXUXUXUXUXUXUXUXUXUXUXUXUXUXUXUXUXUXUXUXUXUXUXUXUXUXUXUXUXUXUXUXUXUXUXUXUXUXUXUXUXUXUXUXUXUXUXUXUXUX",
"UXUXUXUXUXUXUXUXUXUXUXUXUXUXUXUXUXUXUXUXUXUXUXUXUXUXUXUXUXUXUXUXUXUXUXUXUXUXUXUXUXUXUXUXUXUXUXUXUXUXUXUXUXUXUXUXUXUXUXUXUXUXUXUXUXUXUXUXUXUXUXUXUXUXUXUXUXUXUXUXUXUXUXUXUXUXUXUXUXUXUXUXUXUXUXUXUXUXUXUX"
};
