/* XPM */
static char *pdiAddjagginess[] = {
/* columns rows colors chars-per-pixel */
"32 32 158 2",
"   c gray24",
".  c #3E3E3E",
"X  c #414141",
"o  c gray26",
"O  c #444444",
"+  c gray27",
"@  c #464646",
"#  c gray28",
"$  c #484848",
"%  c #494949",
"&  c gray29",
"*  c #4B4B4B",
"=  c #4C4C4C",
"-  c gray30",
";  c #4E4E4E",
":  c gray31",
">  c #505050",
",  c #515151",
"<  c gray32",
"1  c #535353",
"2  c gray33",
"3  c #555555",
"4  c #565656",
"5  c gray34",
"6  c #585858",
"7  c #5D5D5D",
"8  c #606060",
"9  c gray38",
"0  c #626262",
"q  c gray39",
"w  c #646464",
"e  c gray40",
"r  c #686868",
"t  c DimGray",
"y  c #6A6A6A",
"u  c gray42",
"i  c gray43",
"p  c #6F6F6F",
"a  c gray44",
"s  c #717171",
"d  c gray45",
"f  c #747474",
"g  c gray46",
"h  c #767676",
"j  c #777777",
"k  c gray47",
"l  c #797979",
"z  c gray48",
"x  c #7C7C7C",
"c  c gray49",
"v  c #7E7E7E",
"b  c gray50",
"n  c #818181",
"m  c gray51",
"M  c #838383",
"N  c #848484",
"B  c gray52",
"V  c #868686",
"C  c gray53",
"Z  c #888888",
"A  c #898989",
"S  c gray54",
"D  c #8B8B8B",
"F  c gray55",
"G  c #8D8D8D",
"H  c #8E8E8E",
"J  c gray56",
"K  c #909090",
"L  c gray57",
"P  c #929292",
"I  c #939393",
"U  c gray58",
"Y  c #959595",
"T  c gray59",
"R  c #979797",
"E  c #989898",
"W  c gray60",
"Q  c #9A9A9A",
"!  c #9B9B9B",
"~  c gray61",
"^  c #9D9D9D",
"/  c gray62",
"(  c #9F9F9F",
")  c #A0A0A0",
"_  c gray63",
"`  c #A2A2A2",
"'  c gray64",
"]  c #A4A4A4",
"[  c #A5A5A5",
"{  c gray65",
"}  c #A7A7A7",
"|  c #A9A9A9",
" . c #AAAAAA",
".. c gray67",
"X. c #ACACAC",
"o. c gray68",
"O. c #AEAEAE",
"+. c #AFAFAF",
"@. c gray69",
"#. c #B1B1B1",
"$. c #B2B2B2",
"%. c gray70",
"&. c #B4B4B4",
"*. c gray71",
"=. c #B6B6B6",
"-. c #B9B9B9",
";. c gray73",
":. c #BBBBBB",
">. c #BCBCBC",
",. c gray74",
"<. c gray",
"1. c gray75",
"2. c #C0C0C0",
"3. c #C3C3C3",
"4. c #C5C5C5",
"5. c gray78",
"6. c #C8C8C8",
"7. c gray79",
"8. c #CACACA",
"9. c #CBCBCB",
"0. c gray80",
"q. c #CECECE",
"w. c gray81",
"e. c #D0D0D0",
"r. c gray82",
"t. c LightGray",
"y. c #D5D5D5",
"u. c gray84",
"i. c #D7D7D7",
"p. c gray85",
"a. c gray86",
"s. c gainsboro",
"d. c #DDDDDD",
"f. c gray87",
"g. c #DFDFDF",
"h. c gray88",
"j. c #E4E4E4",
"k. c gray90",
"l. c #E6E6E6",
"z. c #E7E7E7",
"x. c #E9E9E9",
"c. c #EAEAEA",
"v. c gray92",
"b. c #EEEEEE",
"n. c #EFEFEF",
"m. c gray94",
"M. c #F1F1F1",
"N. c gray95",
"B. c gray96",
"V. c #F6F6F6",
"C. c gray97",
"Z. c #F8F8F8",
"A. c gray98",
"S. c #FBFBFB",
"D. c gray99",
"F. c #FDFDFD",
"G. c #FEFEFE",
"H. c gray100",
/* pixels */
"3 3 3 3 3 3 3 3 3 3 3 3 3 3 3 3 3 3 3 3 3 3 3 3 3 3 3 3 3 3 3 3 ",
"3 3 3 3 3 3 3 3 3 3 3 3 3 3 3 3 , , 3 3 3 3 3 3 3 3 3 3 3 3 3 3 ",
"3 3 3 3 3 3 3 3 3 3 3 3 3 3 * * 3 r - - * , 3 3 3 3 3 3 3 3 3 3 ",
"3 3 3 3 3 3 3 3 3 3 3 3 , 3 P P Z *.r Z m * # * - 3 3 3 3 3 3 3 ",
"3 3 3 3 3 3 3 3 3 3 3 3 - P R 6.P m Z R p.E c p 6 , , 3 3 3 3 3 ",
"3 3 3 3 3 3 3 3 3 3 3 - * ^ c 2.%.e l H +.j.` m +.P - , 3 3 3 3 ",
"3 3 3 3 3 3 3 3 3 , , r P [ c Z ` m Z P 7 p E ..N R m r 3 , 3 3 ",
"3 3 3 3 3 3 3 3 , 3 m ^ j.m *.N %.N [ ^ N [ Z N E R *.b.<., - 3 ",
"3 3 3 3 3 3 3 , , g E %.l l H m [ s H c R +.H c ;.H.y.m q.Z * 3 ",
"3 3 3 3 3 3 , , R ^ m E g %.^ +.A.%.6.p.p.g H *.R Z <.;.b.s , 3 ",
"3 3 3 3 3 , 6 E +.c H ^ Z +.c N R E ..b.*.P H Z ^ E V.t.d.3 3 3 ",
"3 3 3 3 3 - s Z c c *.[ g l R ..P ^ H c ` [ c P A.q.V.t.<.- 3 3 ",
"3 3 3 3 * Z ` m E H E l s [ ....+...+.R l ` y.d.H.6.V.t.H * 3 3 ",
"3 3 3 - c *.H R l p c E +.+...........` P H.H.4.H.6.y.` e * 3 3 ",
"3 3 * 7 E c e c H [ %.......[ ........R +.H.H.4.d.R *.y.^ o 3 3 ",
"3 3 o p m Z ` +.+.....................E ..c.6.P *.<.c.p.` # 3 3 ",
"3 3 - g %.+.................[ ..[ ....R P <.y.2.H.t.t.l.+.* , 3 ",
"3 3 3 * p ..+.....[ ..................R ;.H.H.6.V.q.6.H.+.# 3 3 ",
"3 3 3 3 * 7 ^ %.....[ ..[ ......[ ....R +.H.H.6.A.d.%.l.H * 3 3 ",
"3 3 3 3 3 * * l [ ............[ ....+.^ E b.d.[ ;.[ g <.m * 3 3 ",
"3 3 3 3 3 3 3 * 3 [ +...[ ............` Z ;.4.[ d.%.N H...# 3 3 ",
"3 3 3 3 3 3 3 3 - p +.................P d.H.H.y.H.<.^ A.` # 3 3 ",
"3 3 3 3 3 3 3 3 3 - N +.........[ ..` R M.V.p.c.M.6.2.d...# 3 3 ",
"3 3 3 3 3 3 3 3 3 , , ` +...[ ......E Z <.<.P ;.;.A.2.[ ^ * 3 3 ",
"3 3 3 3 3 3 3 3 3 3 , e ` %.........R %.H.M.<.l.R H.+.H m * , 3 ",
"3 3 3 3 3 3 3 3 3 3 3 - * g ..%.+.+.E ..H.M.6.H...y.R 2.` # 3 3 ",
"3 3 3 3 3 3 3 3 3 3 3 3 , * 3 l H +.E P V.l.d.M.<.` ;.;.Z - 3 3 ",
"3 3 3 3 3 3 3 3 3 3 3 3 3 3 - - 3 9 s ` %.Z l.d.j...4.+.p , 3 3 ",
"3 3 3 3 3 3 3 3 3 3 3 3 3 3 3 3 3 - - r ` e N P q.6.;.c 3 3 3 3 ",
"3 3 3 3 3 3 3 3 3 3 3 3 3 3 3 3 3 3 3 3 - 3 7 , . r R . , 3 3 3 ",
"3 3 3 3 3 3 3 3 3 3 3 3 3 3 3 3 3 3 3 3 3 3 , 3 , # o # 3 3 3 3 ",
"3 3 3 3 3 3 3 3 3 3 3 3 3 3 3 3 3 3 3 3 3 3 3 3 3 3 3 3 3 3 3 3 "
};
