/* XPM */
static char *pdiAvFracturesIcon[] = {
/* columns rows colors chars-per-pixel */
"32 32 220 2",
"   c #32365C",
".  c #33385F",
"X  c #323762",
"o  c #363B65",
"O  c #363C6F",
"+  c #383D66",
"@  c #393D68",
"#  c #3D405C",
"$  c #3C416D",
"%  c #3D4373",
"&  c #454545",
"*  c #464C4B",
"=  c #484747",
"-  c #494845",
";  c #4E4E4E",
":  c #464757",
">  c #42445B",
",  c #484C54",
"<  c #4F5050",
"1  c #504F4E",
"2  c #534F50",
"3  c #5D4F51",
"4  c #50504D",
"5  c #515152",
"6  c #50515B",
"7  c #5B5455",
"8  c #5B5B5A",
"9  c #404573",
"0  c #404679",
"q  c #444B7C",
"w  c #494D70",
"e  c #515263",
"r  c #55586E",
"t  c #525572",
"y  c #525679",
"u  c #605052",
"i  c #605758",
"p  c #6A5856",
"a  c #755155",
"s  c #785156",
"d  c #7C5D60",
"f  c #636364",
"g  c #67637F",
"h  c #736067",
"j  c #7B6574",
"k  c #72726F",
"l  c #767675",
"z  c #7C7D7C",
"x  c #444B85",
"c  c #484E82",
"v  c #4A5085",
"b  c #4D548C",
"n  c #4F5692",
"m  c #505680",
"M  c #525886",
"N  c #53588D",
"B  c #595E8E",
"V  c #505793",
"C  c #515896",
"Z  c #535A99",
"A  c #535CA1",
"S  c #565FA9",
"D  c #5565AB",
"F  c #5961A4",
"G  c #5C63AA",
"H  c #5F68AC",
"J  c #5769B2",
"K  c #5B69B4",
"L  c #6F7288",
"P  c #71748E",
"I  c #7C7D82",
"U  c #636CB5",
"Y  c #6972BE",
"T  c #6573C9",
"R  c #6578CF",
"E  c #6B74C3",
"W  c #6A75CA",
"Q  c #6C78CD",
"!  c #667AD2",
"~  c #697BD5",
"^  c #6F7FDB",
"/  c #737AC9",
"(  c #7975C3",
")  c #7979C5",
"_  c #737DD2",
"`  c #717CD8",
"'  c #7780CB",
"]  c #7E87D1",
"[  c #7582E0",
"{  c #7985E4",
"}  c #7E88E5",
"|  c #7F89EB",
" . c #8E5158",
".. c #846466",
"X. c #886565",
"o. c #8C6769",
"O. c #8D6869",
"+. c #976A68",
"@. c #A2535C",
"#. c #B6545E",
"$. c #A05767",
"%. c #AB5861",
"&. c #A57070",
"*. c #B67779",
"=. c #BC797A",
"-. c #CB5561",
";. c #CE5B75",
":. c #C95D7A",
">. c #D3586F",
",. c #DC5564",
"<. c #DD5769",
"1. c #D25A73",
"2. c #C37B7C",
"3. c #DB6778",
"4. c #E6525D",
"5. c #E8545E",
"6. c #E25564",
"7. c #E95564",
"8. c #E3606F",
"9. c #E56470",
"0. c #EC767D",
"q. c #F46D79",
"w. c #9A6699",
"e. c #8C6FB1",
"r. c #8373BA",
"t. c #827ABF",
"y. c #8A70B3",
"u. c #897CBF",
"i. c #916CAA",
"p. c #9B6AA2",
"a. c #9A7EB6",
"s. c #A7689A",
"d. c #AC6593",
"f. c #AD7A8E",
"g. c #B2638E",
"h. c #BB6186",
"j. c #B16794",
"k. c #857EC8",
"l. c #C1648D",
"z. c #D26E84",
"x. c #EB7B82",
"c. c #F17F81",
"v. c #8E8E8B",
"b. c #91919A",
"n. c #9D9D9E",
"m. c #8484A3",
"M. c #9C9DAB",
"N. c #AB81AE",
"B. c #A480B2",
"V. c #AF84B3",
"C. c #A98AB9",
"Z. c #B183AD",
"A. c #BB81A4",
"S. c #BA85A9",
"D. c #A2A3AD",
"F. c #AFAEAD",
"G. c #B4B4B6",
"H. c #8D92C3",
"J. c #8790D2",
"K. c #8B94D4",
"L. c #9F8EC2",
"P. c #828CEC",
"I. c #838EF2",
"U. c #8A95FE",
"Y. c #8D99FF",
"T. c #A0A7DB",
"R. c #A3AADC",
"E. c #ABA4D2",
"W. c #AEADDB",
"Q. c #A8AEE1",
"!. c #A7B4E6",
"~. c #ABB1E4",
"^. c #B9BEE5",
"/. c #BBC0E9",
"(. c #CE8081",
"). c #CD869E",
"_. c #D28183",
"`. c #DA8485",
"'. c #D2849E",
"]. c #D6889A",
"[. c #DB8594",
"{. c #DC8B9A",
"}. c #C686A2",
"|. c #C987A1",
" X c #CE89A2",
".X c #E6898A",
"XX c #E88885",
"oX c #EA8A8A",
"OX c #E68B93",
"+X c #E08B9C",
"@X c #EB8A91",
"#X c #F18285",
"$X c #F48D8C",
"%X c #FE8E87",
"&X c #FA8E8B",
"*X c #F98F90",
"=X c #F5908F",
"-X c #FD908E",
";X c #FC9090",
":X c gray76",
">X c #CECECB",
",X c #D6D6D7",
"<X c #C6CCED",
"1X c #C9CEEC",
"2X c #CED1EF",
"3X c #CCD0F0",
"4X c #D0D3ED",
"5X c #D5D8EF",
"6X c #DBDEF5",
"7X c #D9DDF8",
"8X c #DBE2F9",
"9X c #E2E2E2",
"0X c #E9EAEC",
"qX c #E4E5F4",
"wX c #E6E8F8",
"eX c #EAECFA",
"rX c #ECF0FA",
"tX c #F5F5F7",
"yX c #F3F5FC",
"uX c #FEFEFE",
/* pixels */
"; ; ; ; ; 2 ; ; ; ; ; ; * * 7 ..g d &...; * ; ; ; ; ; ; ; 2 ; ; ",
"; ; ; ; ; ; ; ; * ; * 7 X.*.XX Xk.@X*X=X(...; * ; < ; ; ; 2 ; ; ",
"2 ; ; ; 4 , * < i o.=..X*X*X&Xk.N.-X$X$X;X$X(.o.5 * ; ; ; ; ; ; ",
"; ; ; = * p +.=.oX*X&X$X$X&X X) @X&X$X$X$X$X;X;X_.O.5 * ; ; 2 ; ",
"; = 5 l m.B.'.$X&X&X$X$X&X$Xa.a.&X$X$X$X$X$X$X$X*X*X`.j < * , ; ",
"f G.9XuXuX8X^.E.C.A.[.$X%X}./ oX&X$X$X$X$X$X$X$X$X$X*XV.f.o.; * ",
"z uXuXuXuXuXuXuXeX<XW.L.a.k.a.%X$X$X$X$X$X$X$X$X$X$X$XB.{.;X_.d ",
"f tXuXuXuXuXuXuXuXuXuXyXQ.T [.%X$X$X$X$X$X$X$XoX$X;X=XB.{.#Xq.%.",
"7 0XuXuXuXuXuXuXuXuXuXuX<XE  X%X&X&X$X$X$X$X$X$X$X#Xz.r.3.6.7. .",
"; ,XuXuXuXuXuXuXuXuXuX5XJ.E k.a.|.oX$X&X-X$XoXXX8.6.i.j.4.6.6.s ",
"; :XuXuXuXuXuXuXuXwXT.W ` P.^ ! Q ) a.S.{.0.8.,.4.h.e.6.6.6.,.u ",
"& F.uXuXuXuXuXuX^./ W | U.U.U.U.I.{ ^ ! ( >.5.5.1.Y 1.7.6.7.-.1 ",
"& b.uXuXuXuXuXqXQ { U.U.U.U.U.U.U.Y.U.Y R s.5.6.i.s.7.6.6.7.#.; ",
"= L eXuXuXuXuX~.Z U Y.Y.U.U.U.U.Y.P.H n H ) ,.h.e.6.6.6.<.7.@., ",
"= z 1XuXuXuXyX/ O   b } Y.U.U.Y._ Z n Z Z T p.y.:.5.6.<.<.7. .* ",
"; k 4XwXuXuX^.A X o . $ Y U.P.U n Z Z Z C D [ w.5.6.6.6.6.6.a * ",
"; 8 0X1XuXyX] % o + + . . B F C Z Z Z Z Z Z ! w.4.7.6.6.6.,.3 ; ",
"; 5 9X5XrX3XA . o + + + o 9 Z Z Z Z Z Z Z Z ! w.4.6.5.5.7.-.4 ; ",
"* ; >XuX<XK.% o o o + o o 0 Z Z Z Z Z Z B Z / Y i.p.s.j.h.$.; ; ",
"; = M.uX<XS o o + o o o o q Z Z Z C Z Z C G U A D D J K H 6 ; ; ",
"; = D.7XQ.x o o + o + o o q A Z Z C Z Z Z U F V C Z C Z M 4 4 ; ",
"; = z tXR.O o o o + + o + v Z Z Z Z Z C F U C Z Z Z Z A y 4 ; ; ",
"; ; & v.wXb X o o o o + + v Z Z Z Z Z C U F V Z Z Z Z y 5 ; ; ; ",
"; ; ; = n.H.X o + + o o + b Z Z Z Z C F U Z Z Z Z V e ; ; ; ; ; ",
"; ; ; ; ; P @ o o + o o + n Z Z C C Z U F Z Z Z y ; ; ; ; ; 2 ; ",
"; ; ; ; ; ; , o o + + o + n Z Z Z C G U Z Z N e ; ; ; ; ; ; ; ; ",
"; ; ; ; ; ; 1 : + o o o $ n Z Z Z C U G C t < ; ; 4 ; 2 ; 2 ; ; ",
"; ; ; ; ; ; 1 1 > o + o $ C Z Z C H U v < 4 2 ; ; ; ; ; ; ; ; ; ",
"2 ; ; ; ; ; 2 2 2 > + o $ Z Z Z Z B r ; ; ; ; < ; ; ; ; ; ; < ; ",
"; ; ; 5 ; ; ; ; ; ; # o % Z Z C t ; 4 ; ; ; ; ; < < ; 2 ; ; 5 ; ",
"; ; ; ; ; ; ; 2 ; ; ; # 0 Z M 6 4 ; ; ; ; 2 ; ; ; ; ; ; 5 ; ; ; ",
"; < < ; ; ; ; ; 2 ; 4 ; w t ; 4 ; ; ; ; ; ; ; 5 ; < ; ; ; ; ; ; "
};
