/* XPM */
static char *pdiCreateIcon[] = {
/* columns rows colors chars-per-pixel */
"32 32 109 2",
"   c #007F06",
".  c #007E0C",
"X  c #1C7624",
"o  c #197A22",
"O  c #375F3A",
"+  c #3B5E3F",
"@  c #256F2D",
"#  c #23712A",
"$  c #37613B",
"%  c #39603D",
"&  c #37773E",
"*  c #3E5C41",
"=  c #3A7540",
"-  c #444444",
";  c #444B45",
":  c #4C474C",
">  c #4E4E4E",
",  c #4F4D50",
"<  c #455347",
"1  c #435945",
"2  c #4B524C",
"3  c #50494F",
"4  c #514D51",
"5  c #535353",
"6  c #545854",
"7  c #565958",
"8  c #5C5C5C",
"9  c #4F6C51",
"0  c #407546",
"q  c #59635B",
"w  c #5A7F5F",
"e  c #5C6C63",
"r  c #636363",
"t  c #6B6B6B",
"y  c #746C73",
"u  c #757575",
"i  c #787777",
"p  c #7A7A7A",
"a  c #02820D",
"s  c #058411",
"d  c #038810",
"f  c #088414",
"g  c #0D8118",
"h  c #0A8816",
"j  c #0D8A19",
"k  c #128C1E",
"l  c #168421",
"z  c #1E8E28",
"x  c #149521",
"c  c #189324",
"v  c #1C9528",
"b  c #1E9C2B",
"n  c #298334",
"m  c #32993B",
"M  c #29A335",
"N  c #2EA93B",
"B  c #30A53B",
"V  c #32A83D",
"C  c #379740",
"Z  c #3C9E45",
"A  c #3AAF45",
"S  c #37B044",
"D  c #409747",
"F  c #58945E",
"G  c #45A250",
"H  c #41B44C",
"J  c #4DBE57",
"K  c #5EAD67",
"L  c #658469",
"P  c #658D6A",
"I  c #66AF6D",
"U  c #6CB976",
"Y  c #56C661",
"T  c #67CC73",
"R  c #6AC373",
"E  c #6AD576",
"W  c #73DE7D",
"Q  c #78BE81",
"!  c #75DB80",
"~  c #7BD885",
"^  c #77E181",
"/  c #838383",
"(  c #8B8B8B",
")  c #918B90",
"_  c #939293",
"`  c #9C9C9C",
"'  c #9FBFA1",
"]  c #A3A3A3",
"[  c #ACACAC",
"{  c #ACB1AC",
"}  c #B3B3B3",
"|  c #BCBCBC",
" . c #86EE90",
".. c #8EF498",
"X. c #91F79B",
"o. c #94F99D",
"O. c #BDC0BE",
"+. c #C4C4C4",
"@. c #CBCBCB",
"#. c #D3D3D3",
"$. c #DBDBDB",
"%. c #D2E1D3",
"&. c #DEEADF",
"*. c #E2E2E2",
"=. c #EAE5EA",
"-. c #EBEBEB",
";. c #F2F2F2",
":. c #FCF7FC",
">. c #FBFBFB",
/* pixels */
"> > > > > > > > > > > 5 > > t ` ( > > : - ; 4 > > > > > > > > : ",
"> > > > 5 > > > > > > > ; t -.>.>.` ; t _ / > > > > : ; > > > r ",
"> > > > > > > > > > > > - / -.$.$.| p ;.>.>.[ > ; 5 u t ; - p ;.",
"> > > > > > > 5 5 > > > : y &.#.+.] [ >.*.$.#.5 y *.>.-.` - [ >.",
"> > > > > > 5 > 5 > > > > 5 #.#.+.( _ -.#.+.O.5 +.>.;.-.*.8 ] ;.",
"> 5 > > > > > > > > > > > > / _ ( 8 / *.@.@.[ 5 @.-.#.+.+.r ) -.",
"> > > > 2 5 > > > > > > > ; ( } ] t r @.+.| ( - } *.@.} } 8 t #.",
"> > > > > > > > > > > > 4 - p [ _ r > p u p t - ] -.+.} { 5 5 ( ",
"> 5 > > > 5 > > > > 5 > > : ` } [ / > O.#.@./ - i +.[ ` ( > 8 #.",
"> > > > > > > > > > > > ; r -.>.*.+.7 / _ ( t : 8 / t t r ; 7 ` ",
"5 > > > > > > > > > > > - ] >.-.*.#.] @.| O.] ; p *.@.} p - / #.",
"> > > > > > > > > > 4 2 8 *.>.-.*.@.*.>.;.-.#.8 t ` ( ( t : @.>.",
"> > > > > > > > > > 4 - ) >.;.-.#.@.;.;.-.-.-./ ( +.` ` _ p ;.:.",
"> > > > 5 > > > 4 5 2 ; { >.>.=.@.#.>.:.;.-.*.@.&.>.-.*.#.#.;.;.",
"> > > > > 4 4 4 1 @ o g z A I { O.-.>.;.-.*.$.*.:.;.=.&.*.*.-.-.",
"> > 5 > > 5 2 @ f d d h s a   . D &.>.-.*.$.@.=.:.-.=.*.*.*.*.#.",
"2 4 4 2 , 2 o d s f f f s s f s a m %.*.#.O.+.-.;.-.=.*.*.*.@.} ",
"4 4 2 4 4 # d f f f f . j f s s h   m | } _ +.-.=.*.*.*.*.*.@.` ",
"2 4 4 4 % d s f f s s A ! W V s f f . F ) i +.#.#.#.*.$.$.$.#./ ",
"2 4 2 4 X d f f f s c  ...X.E s h f s l t y [ | @.@.#.#.@.#.@.u ",
"4 4 4 < g f s f f s x ! o.o.Y . s f h s 9 t p ) ` } O.+.O.O.@.r ",
"2 4 > * f s h s f f s v H A x g f f h a 0 t t u i / ] [ [ } } 5 ",
"> > 4 * f f f f f f f . . . . Y J . f a & y t i i i / _ ` } _ 2 ",
"> > > * f s f f f f f f f f s B M s f a & y r i i i i / ) ] t ; ",
"> 5 4 1 g d f s f f f f f s f s . s h h O 4 ; r p i i p ( ( > > ",
"> > 4 5 n a f h f f f f f f s f h h s g < > 4 5 i i i u ( t ; > ",
"> > > 4 L b . f s f f f f f f f f f d # 4 4 > > t p p i p > 4 4 ",
"> > > > 5 K x . f s s f f f f f f a g 1 4 > > > : 6 8 q 5 > > > ",
"> > > > ; q R N f . s s s h f . s j $ 4 > > > > > > 2 > > > > > ",
"> > > > 4 : 7 ~ E S c j f f x M G 9 3 > > > > > > > 4 > > > > > ",
"5 > > > > 4 : 3 L Q ~ ! E T U P 7 4 > > > > > > > > > > > > > > ",
"> > > > > 2 4 : : > 6 q e 8 5 : > > > > > > > > > > > > > 5 > > "
};
