/* XPM */
static char *shpdiFracturesIcon[] = {
/* columns rows colors chars-per-pixel */
"32 32 94 2",
"   c #32365C",
".  c #33385F",
"X  c #393D5E",
"o  c #363B64",
"O  c #373C69",
"+  c #383D65",
"@  c #393E69",
"#  c #3D405C",
"$  c #3D4161",
"%  c #3C416D",
"&  c #3E4471",
"*  c #4B4B45",
"=  c #4E4E4E",
"-  c #454754",
";  c #41445A",
":  c #47495C",
">  c #4B4C52",
",  c #4B4D5C",
"<  c #4F5053",
"1  c #4F5158",
"2  c #504F4D",
"3  c #50504E",
"4  c #505053",
"5  c #51525A",
"6  c #4B4E65",
"7  c #4A4D6B",
"8  c #404675",
"9  c #404679",
"0  c #43497B",
"q  c #494D70",
"w  c #525362",
"e  c #51546E",
"r  c #55586E",
"t  c #585A68",
"y  c #525572",
"u  c #515679",
"i  c #5C5E73",
"p  c #595C79",
"a  c #5E617C",
"s  c #484E85",
"d  c #4A5085",
"f  c #4C538B",
"g  c #4F5692",
"h  c #515681",
"j  c #545984",
"k  c #52588D",
"l  c #595E8E",
"z  c #505693",
"x  c #515896",
"c  c #535A99",
"v  c #535BA0",
"b  c #585FA1",
"n  c #5961A4",
"m  c #5D65AB",
"M  c #5F68AE",
"N  c #5F67B2",
"B  c #626586",
"V  c #62678B",
"C  c #64688B",
"Z  c #666A90",
"A  c #696E98",
"S  c #6169AC",
"D  c #696FA5",
"F  c #626BB4",
"G  c #656EBA",
"H  c #6F74A8",
"J  c #6770BE",
"K  c #6871BD",
"L  c #7278B4",
"P  c #757CBB",
"I  c #6A73C3",
"U  c #6C76C8",
"Y  c #6E78CB",
"T  c #777EC2",
"R  c #717BCD",
"E  c #737DD3",
"W  c #7981C9",
"Q  c #7680D9",
"!  c #7D85D4",
"~  c #7983DC",
"^  c #7F88DA",
"/  c #7B85E3",
"(  c #7E88E6",
")  c #7F8AE8",
"_  c #8089DD",
"`  c #848DE5",
"'  c #818CEC",
"]  c #838EF2",
"[  c #8690EF",
"{  c #8590F4",
"}  c #8792F9",
"|  c #8892F6",
" . c #8A95FE",
".. c #8D98FF",
/* pixels */
"= = = = = > 3 3 3 = 3 < * * 5 B B a H B 3 * = = = = = = = 2 2 = ",
"= = 3 = = = = 3 3 * * 5 C P [ ] E  ... .! B < * = = 3 = = 2 < > ",
"= > 3 < = * * = 5 Z T ' .... .E / .. . . . .^ C < * = < = = 3 3 ",
"= = 3 * = t A W | .... . ...' Y }  . . . . ... ._ C 4 * = = < = ",
"3 * < i D ~ ]  . ... . . . .E ~  . . . . .}  . . ...` V * * = = ",
"5 L `  . .] ( ~ ~ ( {  . .' Y {  . . . . . . . . . . .( W C < * ",
"> n } .. . . . .| ) ~ Q ~ R /  . . . . . . . . . . . .~  ..._ p ",
">   s ( .. . . . . ...} ~ U ]  . . . . . . . .}  ... .Q { ) I j ",
"= +   & R .... . . . ...) U '  . . . . . . . . . .~ I I F c g y ",
"= $ o o o K .... . ...' E U R / ' }  . . ... .~ N c G M g c c w ",
"3 # o o o . n | ..{ Q U Q ( ~ R U Y Q ) ' E M g g N K c c c c 1 ",
"3 # O o o o   f ~ Y Y '  . . .} ] ( E E U c z x n I n x c c z = ",
"3 6 O o o o . 8 U (  . . . . . . ...} I I F x x K N x c c c j = ",
"* p 0 o O o o m n F  ... . . .....' S z F U c M I c x c c c u = ",
"3 , f o o o & I &   f ( .. ... .E c x x c U G I n g c c c c e * ",
"3 > s 0 o o c m o o   % K  .' F x x c c x M E F x c c c c c w = ",
"= = % g o % I 0 o o o o   k n c c c x c x c R M z x c c c x 4 = ",
"= = X d & g M o o o o + o 8 c c c c c c x c R F z c x x g z > = ",
"= = # @ x G & o o + o o X 0 c c c c c x c x U I G G F F F j 3 3 ",
"= = 7 O x F o o O o o o o 0 b c x c c c c n G b n m S F S 5 * = ",
"= = 6 f m f o o o o @ o o 0 c c c c c c c F n x c g c c h * 3 < ",
"= = - O n & o o + o o o o d c c c c c x n F x c c c c v u 2 3 3 ",
"= = = - 0 d o + o O @ o + f c c c c c x G n x c c c c u 4 3 = = ",
"= = = 2 : x @ o o + o o + f c c c c x n F x x c c z w = 3 3 > = ",
"= = > 3 2 r & o o O o o @ f c c c c c F n c c c u 4 = = = 2 = = ",
"= = 3 3 = 2 > o o o + o @ z c c c c n G c c k 5 * = 2 = = 2 = = ",
"= 3 3 3 3 > = - o o o o + x c c c c F n x y < 2 < = = 3 = < = > ",
"= > 3 > 3 = 3 > ; O o o % x c c c n F h 5 * > = < = = = = 3 3 < ",
"3 3 3 3 3 3 3 3 < : o o & c c c c l r = = 3 = = 2 = = 3 = 3 2 = ",
"> 3 > 3 = > 3 > > = ; O & c c x y = * = 3 3 = 2 = = = 3 = = = = ",
"3 3 = > > 3 3 3 = = 2 X & v j 5 2 < 2 2 = > = 3 > 3 3 < 3 3 2 = ",
"= = 3 3 3 3 3 > 2 2 2 = q y = = 3 > 2 2 = = = = 3 < > = 2 < > = "
};
