/* XPM */
static char *pdiKeysIcon[] = {
/* columns rows colors chars-per-pixel */
"32 32 105 2",
"   c gray29",
".  c #4B4B4B",
"X  c #4C4C4C",
"o  c gray30",
"O  c #4E4E4E",
"+  c gray31",
"@  c #505050",
"#  c #515151",
"$  c gray32",
"%  c #535353",
"&  c gray33",
"*  c #555555",
"=  c #565656",
"-  c gray34",
";  c #585858",
":  c #5A5A5A",
">  c #5B5B5B",
",  c gray36",
"<  c gray37",
"1  c #5F5F5F",
"2  c #606060",
"3  c gray38",
"4  c #626262",
"5  c gray39",
"6  c gray40",
"7  c #686868",
"8  c DimGray",
"9  c #6A6A6A",
"0  c gray42",
"q  c #6D6D6D",
"w  c gray43",
"e  c #6F6F6F",
"r  c #717171",
"t  c gray45",
"y  c #747474",
"u  c #777777",
"i  c #797979",
"p  c gray48",
"a  c #7B7B7B",
"s  c #7C7C7C",
"d  c gray49",
"f  c gray50",
"g  c #818181",
"h  c #838383",
"j  c #848484",
"k  c gray52",
"l  c #868686",
"z  c #888888",
"x  c #898989",
"c  c gray54",
"v  c #8E8E8E",
"b  c gray56",
"n  c gray57",
"m  c #939393",
"M  c gray58",
"N  c #959595",
"B  c gray59",
"V  c #979797",
"C  c #989898",
"Z  c gray60",
"A  c gray61",
"S  c #9D9D9D",
"D  c gray62",
"F  c #9F9F9F",
"G  c #A0A0A0",
"H  c gray64",
"J  c #A4A4A4",
"K  c #A5A5A5",
"L  c gray65",
"P  c gray66",
"I  c #A9A9A9",
"U  c #AAAAAA",
"Y  c gray67",
"T  c #ACACAC",
"R  c gray68",
"E  c #AEAEAE",
"W  c #AFAFAF",
"Q  c gray69",
"!  c #B1B1B1",
"~  c #B2B2B2",
"^  c gray70",
"/  c #B4B4B4",
"(  c gray71",
")  c #B6B6B6",
"_  c #B7B7B7",
"`  c gray72",
"'  c #B9B9B9",
"]  c gray73",
"[  c #BCBCBC",
"{  c gray74",
"}  c gray",
"|  c #C1C1C1",
" . c gray76",
".. c #C3C3C3",
"X. c #C8C8C8",
"o. c gray84",
"O. c gray85",
"+. c gray86",
"@. c gainsboro",
"#. c gray87",
"$. c gray91",
"%. c gray92",
"&. c #EFEFEF",
"*. c #F4F4F4",
"=. c gray98",
/* pixels */
"* * 1 1 1 1 1 1 1 1 1 1 1 1 1 1 1 1 1 1 1 1 1 1 1 1 1 1 1 1 * 9 ",
"* * * * * * * * * * * * * * * * * * * * * * * * * * * * * * * 1 ",
"* * * * * * * * * * * * * * * * * * * * * * * * * * * * * * * 1 ",
"* * * * * * * * * * * * * * * * * * * * * * * * * * * * * * * 1 ",
"* * * * * * * * * * * * * * * * * * * * * * * * * * * * * * * 2 ",
"* * * * * * * * * * * * * * * * * * * * * * * * * * @ + @ * * 1 ",
"* * * * * * * * * * * * * * * * * * * * * * * * * + 2 c * * * 1 ",
"* * * * * * * * * * * * * * * * * * * * * * * @ * d U ..c + * 1 ",
"* * * * * * * * * * * * * * * * * * * * * @ + 9 S / T T { 9 @ 1 ",
"* * * * * * * * * * * * * * * * * * * * @ > l ^ ^ U U T / d + 1 ",
"* * * * * * * * * * * * * * * * * * @ @ y L / T U T T S r > * 1 ",
"* * * * * * * * * * * * * * * * @ + 2 m ^ ^ U T U U / U + @ * 1 ",
"* * * * * * * * * * * * * * * @ > d T ^ T U T U U U U X.c + @ 2 ",
"* * * * * * @ + @ @ * * * * + e S ^ T U ^ T T T U U L ^ { > @ 1 ",
"* * * * + * e a r * + @ @ > c T ^ U T ^ V r V T ] v 9 L m > * 2 ",
"* * * @ r ] @.$.&.@.S 1 r L ^ T U ^ H y * + 2 H ..v   2 * * * 2 ",
"* * @ 9 ^ / ^ ^ ..@.=...T T U ^ L g > @ * * @ r l 1 * @ * * * 2 ",
"* * 1 S T U U U T U ] ^ U T U c 2 @ @ * * * * * @ @ * * * * * 1 ",
"* * y ^ T B e 9 a S T U T U 9 @ @ * * * * * * * * * * * * * * 1 ",
"* * a T U c *   + > m T ^ ] 1 * * * * * * * * * * * * * * * * 1 ",
"* * 6 U U { T >     1 L T T 2 @ * * * * * * * * * * * * * * * 1 ",
"* * @ l T { &.o.B y a H ^ V * * * * * * * * * * * * * * * * * 1 ",
"* * * * m T X.$.*.O.^ L ^ g @ * * * * * * * * * * * * * * * * 1 ",
"* * * @ * g H ^ / / T ^ H 2 @ * * * * * * * * * * * * * * * * 1 ",
"* * * * * @ 2 d m V B l 1 @ * * * * * * * * * * * * * * * * * 1 ",
"* * * * * * * @ * * * @ @ * * * * * * * * * * * * * * * * * * 1 ",
"* * * * * * * * * @ * * * * * * * * * * * * * * * * * * * * * 1 ",
"* * * * * * * * * * * * * * * * * * * * * * * * * * * * * * * 1 ",
"* * * * * * * * * * * * * * * * * * * * * * * * * * * * * * * 1 ",
"* * * * * * * * * * * * * * * * * * * * * * * * * * * * * * * 1 ",
"* * * * * * * * * * * * * * * * * * * * * * * * * * * * * @ * 1 ",
"* * 1 1 1 1 1 1 1 1 1 1 1 1 1 1 1 1 1 1 1 1 1 1 1 1 1 1 2 1 1 9 "
};
