/* XPM */
static char *pdiManageIcon[] = {
/* columns rows colors chars-per-pixel */
"32 32 241 2",
"   c #4D5459",
".  c #544F59",
"X  c #5A4F5F",
"o  c #505055",
"O  c #515055",
"+  c #515156",
"@  c #515157",
"#  c #515257",
"$  c #525257",
"%  c #525258",
"&  c #535358",
"*  c #535359",
"=  c #545459",
"-  c #54545A",
";  c #54555B",
":  c #55555A",
">  c #55555B",
",  c #56565B",
"<  c #56565C",
"1  c #56575C",
"2  c #57575C",
"3  c #57575D",
"4  c #555A5F",
"5  c #58575D",
"6  c #58585C",
"7  c #58585D",
"8  c #59585E",
"9  c #59595E",
"0  c #585A5F",
"q  c #595A5F",
"w  c #5A595E",
"e  c #5A595F",
"r  c #5A5A5F",
"t  c #5A5B5F",
"y  c #5B5A5F",
"u  c #585F5D",
"i  c #5D585D",
"p  c #5D595E",
"a  c #5E585D",
"s  c #5E4F63",
"d  c #535D62",
"f  c #525E63",
"g  c #535E63",
"h  c #555C62",
"j  c #555D62",
"k  c #545E63",
"l  c #565C61",
"z  c #575C61",
"x  c #565C62",
"c  c #565D62",
"v  c #5B5760",
"b  c #5B5761",
"n  c #5E5164",
"m  c #5F5064",
"M  c #5F5065",
"N  c #5E5264",
"B  c #5C5561",
"V  c #5C5563",
"C  c #5D5462",
"Z  c #5D5463",
"A  c #5C5661",
"S  c #5C5761",
"D  c #5D5662",
"F  c #5E5463",
"G  c #585B60",
"H  c #595B60",
"J  c #5B5860",
"K  c #5B5960",
"L  c #5B5961",
"P  c #5A5B60",
"I  c #5B5A60",
"U  c #585C61",
"Y  c #5C5C60",
"T  c #5D5D62",
"R  c #5D5E63",
"E  c #5E5E62",
"W  c #5E5E63",
"Q  c #5F5F64",
"!  c #497B4D",
"~  c #4C7650",
"^  c #55635A",
"/  c #57615B",
"(  c #546459",
")  c #526B57",
"_  c #516E55",
"`  c #526D56",
"'  c #5A635F",
"]  c #507054",
"[  c #4F6065",
"{  c #4B6268",
"}  c #6F4F53",
"|  c #61575C",
" . c #6B5256",
".. c #7D474B",
"X. c #724D51",
"o. c #734D51",
"O. c #724F53",
"+. c #734F53",
"@. c #754D51",
"#. c #744E52",
"$. c #604E65",
"%. c #604E66",
"&. c #616166",
"*. c #626267",
"=. c #636367",
"-. c #636368",
";. c #646469",
":. c #68676C",
">. c #6A6A6F",
",. c #6C6C71",
"<. c #6D6D71",
"1. c #6F6F72",
"2. c #747478",
"3. c #767679",
"4. c #76767A",
"5. c #7B7B7E",
"6. c #7B7B7F",
"7. c #399B3C",
"8. c #3B993D",
"9. c #3A9A3D",
"0. c #23B026",
"q. c #25B527",
"w. c #25BD27",
"e. c #24BE26",
"r. c #24BF27",
"t. c #27B82A",
"y. c #28B72A",
"u. c #2CB72E",
"i. c #33AC35",
"p. c #36A939",
"a. c #1CC91E",
"s. c #1BD81C",
"d. c #0EED0E",
"f. c #0EEF0E",
"g. c #06F707",
"h. c green",
"j. c #11E112",
"k. c #11E611",
"l. c #13E414",
"z. c #14E315",
"x. c #23C624",
"c. c #24C526",
"v. c #23C924",
"b. c #25C926",
"n. c #448647",
"m. c #9D383B",
"M. c #A92F32",
"N. c #B02E31",
"B. c #903D41",
"V. c #894347",
"C. c #8A4347",
"Z. c #8A4549",
"A. c #CE1718",
"S. c #CA1D1F",
"D. c #D01E1F",
"F. c #D31C1D",
"G. c #DE1617",
"H. c #DE1717",
"J. c #C42022",
"K. c #C62224",
"L. c #C12628",
"P. c #ED0A0B",
"I. c #EE0F0F",
"U. c #E91111",
"Y. c #F00C0C",
"T. c #FD0102",
"R. c red",
"E. c #818185",
"W. c #828285",
"Q. c #858588",
"!. c #89898D",
"~. c #8B8B8E",
"^. c #97979A",
"/. c #989A9D",
"(. c #9A9A9C",
"). c gray62",
"_. c #9F9F9F",
"`. c #9E9EA0",
"'. c #A0A0A0",
"]. c gray63",
"[. c #A0A0A2",
"{. c #A0A0A3",
"}. c #A2A2A2",
"|. c gray64",
" X c #A3A3A5",
".X c #A4A4A4",
"XX c #A5A5A5",
"oX c #A5A5A7",
"OX c #A6A6A9",
"+X c #A7A7A9",
"@X c #A8A8A7",
"#X c #A9A9A9",
"$X c #A9A9AB",
"%X c #AAAAAA",
"&X c #AAAAAC",
"*X c #ACACAB",
"=X c #ACACAC",
"-X c #B0AEB2",
";X c #B0B0B2",
":X c #B4B4B3",
">X c #B6B6B6",
",X c #B6B6B8",
"<X c gray73",
"1X c #BCBCBC",
"2X c #BDBDBF",
"3X c gray75",
"4X c #C0C0C1",
"5X c #C1C1C3",
"6X c #C3C3C3",
"7X c #C2C2C4",
"8X c #C3C3C4",
"9X c #C5C5C6",
"0X c gray78",
"qX c #C7C7C8",
"wX c #C9C9CA",
"eX c #CBCBCB",
"rX c #CCCCCD",
"tX c #D0D0D1",
"yX c #D3D3D4",
"uX c #D4D4D5",
"iX c #D5D5D4",
"pX c #D5D5D5",
"aX c gray84",
"sX c #D6D6D7",
"dX c #D7D7D7",
"fX c #D8D8D9",
"gX c #DEDEDF",
"hX c #E2E2E1",
"jX c #E3E3E2",
"kX c gray89",
"lX c #E4E4E4",
"zX c #E7E7E7",
"xX c #E8E6E8",
"cX c #E9E9E9",
"vX c gray92",
"bX c #EEEEEE",
"nX c gray94",
"mX c #F3F3F4",
"MX c gray98",
"NX c #FEFEFE",
"BX c gray100",
/* pixels */
"r r r r r r r r r r r r r r r r r r r r r r r r r r r r r r r r ",
"r r r r r r r r r r r r r r r r r r r r r r r r r r r r r r r r ",
"r r r r r r r r r r r r r r r r r r r r r r r r r r r r r r r r ",
"r r r r r r r r r r r r r r r r r r r r r r r r r r r r r r r r ",
"r r r r r r r r r r r r P x d d d l U r r r r r r r r r r r r r ",
"r r r r r r r r r r r d x  .Z.B.Z. .l d U l r r r r r r r r r r ",
"r r r r r r r r r r l C.F.I.G.A.G.I.F.V.U +.p r r r r r r r r r ",
"r r r r r r r r r  .N.Y.N.+.i r p O.N.U.F.P.+.l r r r r r r r r ",
"r r r r r r r r l @.K.@.[ l P P P l { m.R.R. .l r r r r r r r r ",
"r r r r r r r r r 4 x x r r P r P P l M.S.K...l r r r r r r r r ",
"r r r r r r = o r = o r Y P r r r r P P 4   o o o 1 r r r r r r ",
"r r r r r % 5.;XtX6X!.r = r r r r r P = T /.%X%X{.<.% r r r r r ",
"r r r r = +XMXBXBXBXBX9XT = r r r r & ,.yXiX<X:X6XpXQ.% r r r r ",
"r r r % ^.BXBXBXBXBXBXBX4X= r r r r T pX0X'.}..X{.=XpX4.= r r r ",
"r r r T zXBXBXBXBXBXBXBXBX4.= P r o /.jX'..XXXXX.X{.1X>X& r r r ",
"r r = 5.BXBXBXBXBXBXBXBXBX{.o P r o 6XrX'.XXXX.X.X.X%XrX*.r r r ",
"r r - W.BXBXBXBXBXBXBXBXBX+Xo r r = qXeX_..X.XXXXX.X%XyX-.= p P ",
"r r 1 -.nXBXBXBXBXBXBXBXBXW.- r r o .XjX_..X.XXX.X|.<X6X2 r r r ",
"r r r % -XBXBXBXBXBXBXBXpXr r r r 1 ,.vX6X_.{..X{.@XlX!.% r r r ",
"r r r 1 T wXBXBXBXBXBXkX1.= r r r P % Q.bXdX>X=X3XvX|.= r r r r ",
"r r r r 1 r `.uXmXxX-X:.- r r r r r r o 4.4XfXgX9X!.- r r r r r ",
"r r r r r 5 o P -.Q . X A P r r r r r r - o T *.= o r r r r r r ",
"r r r r r r P 5 1 0.a.w.! A P P r r r P A s 5 5 r r r r r r r r ",
"r r r r r r P P A r.h.g.) s A P r r A s ` p.' P r r r r r r r r ",
"r r r r r r r Y A y.z.l.c.~ P s $.A / 8.d.b.Y P r r r r r r r r ",
"r r r r r r r r r / ( ) x.d.s.w.q.v.k.z.8.A A r r r r r r r r r ",
"r r r r r r r r r v A A A ` 7.u.y.i.n.u N P r r r r r r r r r r ",
"r r r r r r r r r r r r r A n s $.s A A r r r r r r r r r r r r ",
"r r r r r r r r r r r r r r r r P r r r r r r r r r r r r r r r ",
"r r r r r r r r r r r r r r r r P r r r r r r r r r r r r r r r ",
"r r r r r r r r r r r r r r r r r r r r r r r r r r r r r r r r ",
"r r r r r r r r r r r r r r r r r r r r r r r r r r r r r r r r "
};
