/* XPM */
static char *pdiPropertiesIcon[] = {
/* columns rows colors chars-per-pixel */
"32 32 157 2",
"   c #414141",
".  c gray26",
"X  c #434343",
"o  c #444444",
"O  c #484848",
"+  c #494949",
"@  c gray30",
"#  c #4E4E4E",
"$  c gray31",
"%  c #505050",
"&  c #515051",
"*  c #515151",
"=  c gray32",
"-  c #525353",
";  c #535252",
":  c #535353",
">  c #535454",
",  c #545353",
"<  c gray33",
"1  c #555554",
"2  c #555555",
"3  c #565656",
"4  c #565757",
"5  c gray34",
"6  c #585858",
"7  c #585958",
"8  c gray35",
"9  c #595A5A",
"0  c #5A5A5A",
"q  c #5B5A5A",
"w  c #5B5B5B",
"e  c gray36",
"r  c #5C5C5D",
"t  c #5D5D5D",
"y  c gray37",
"u  c #5F5F5F",
"i  c #606060",
"p  c #616061",
"a  c gray38",
"s  c #616162",
"d  c #616262",
"f  c #626262",
"g  c gray39",
"h  c #646464",
"j  c #646564",
"k  c #656565",
"l  c gray40",
"z  c #666766",
"x  c #676767",
"c  c #676768",
"v  c #686868",
"b  c #686969",
"n  c DimGray",
"m  c #6A6A6A",
"M  c gray42",
"N  c #6C6C6C",
"B  c #6D6D6D",
"V  c #6D6E6D",
"C  c gray43",
"Z  c #6F6F6F",
"A  c gray44",
"S  c #717171",
"D  c #727171",
"F  c #727272",
"G  c gray45",
"H  c #747474",
"J  c gray46",
"K  c #757576",
"L  c #767676",
"P  c #777777",
"I  c #777878",
"U  c gray47",
"Y  c #787979",
"T  c #797979",
"R  c #7A797A",
"E  c gray48",
"W  c #7B7A7B",
"Q  c #7B7B7B",
"!  c #7C7C7C",
"~  c gray49",
"^  c #7E7E7E",
"/  c #7F7E7F",
"(  c gray50",
")  c #7F7F80",
"_  c #7F8080",
"`  c #808080",
"'  c #808181",
"]  c #818180",
"[  c #818181",
"{  c gray51",
"}  c #838383",
"|  c #848484",
" . c gray52",
".. c gray53",
"X. c #878888",
"o. c #888888",
"O. c #898989",
"+. c #89898A",
"@. c gray54",
"#. c #8B8B8B",
"$. c #8C8C8B",
"%. c gray55",
"&. c #8D8D8D",
"*. c #8E8E8E",
"=. c gray56",
"-. c #908F8F",
";. c #909090",
":. c #919190",
">. c gray57",
",. c #939393",
"<. c gray58",
"1. c gray59",
"2. c #989898",
"3. c gray60",
"4. c #9A9A9A",
"5. c #9B9B9A",
"6. c #9B9B9B",
"7. c gray61",
"8. c gray62",
"9. c gray63",
"0. c #A2A2A2",
"q. c #A5A5A5",
"w. c #A7A7A7",
"e. c gray66",
"r. c #AAAAAA",
"t. c gray67",
"y. c gray68",
"u. c #AEAEAE",
"i. c #AFAFAF",
"p. c gray69",
"a. c gray71",
"s. c #B7B7B7",
"d. c gray72",
"f. c #B9B9B9",
"g. c gray73",
"h. c #BBBBBB",
"j. c #BCBCBC",
"k. c gray74",
"l. c #C0C0C0",
"z. c #C1C1C1",
"x. c gray76",
"c. c #C3C3C3",
"v. c gray77",
"b. c #C6C6C6",
"n. c gray78",
"m. c #C8C8C8",
"M. c #CBCBCB",
"N. c gray80",
"B. c #CECECE",
"V. c #D0D0D0",
"C. c #D2D2D2",
"Z. c #D5D5D5",
"A. c #D7D7D7",
"S. c gray92",
"D. c gray96",
"F. c #F6F6F6",
"G. c #FEFEFE",
/* pixels */
"2 2 2 2 2 2 2 2 2 2 2 2 2 2 2 2 2 2 2 2 2 2 : $ : $ & : 2 2 2 2 ",
"2 2 2 2 2 2 2 2 2 2 2 2 2 2 2 2 2 2 2 2 : : l ` $.@.J 9 : , 2 2 ",
"2 2 2 2 2 2 2 2 2 2 2 2 2 2 2 2 2 2 2 , 6 $.f.b.b.x.f.9.A : 2 2 ",
"2 2 2 2 2 2 2 2 2 2 2 2 2 2 2 2 2 2 < 2 1.c.b.n.m.b.x.f.w.A : 2 ",
"2 2 2 2 2 2 2 2 2 2 2 2 2 2 2 2 2 2 : / j.c.m.B.C.m.x.f.i.1.u : ",
"2 2 2 2 2 2 2 2 2 2 2 2 2 2 2 2 2 < 9 9.k.c.M.S.D.C.x.f.i.4.Z : ",
"2 2 2 2 2 2 2 2 2 2 2 2 2 2 2 2 2 : N r.f.l.N.D.G.C.k.a.r.4.A 2 ",
"2 2 2 2 2 2 2 2 2 2 2 2 2 2 2 2 2 & N w.a.h.x.C.C.b.a.i.w.,.v 2 ",
"2 2 2 2 2 2 2 2 2 2 2 2 2 2 2 2 : 9 A 4.i.a.f.f.f.a.i.r.6.@.9 : ",
"2 2 2 2 2 2 2 2 2 2 2 2 2 2 2 2 l | ` @.9.r.i.p.i.i.w.8.$.A O < ",
"2 2 2 2 2 2 2 2 2 2 2 2 2 2 < l | -.$.I #.6.9.9.9.8.4.$.T $ + 5 ",
"2 2 2 2 2 2 2 2 2 2 2 2 2 < 9 ! $.-.4.#.G } ;.-.-.$.` G $ X 2 2 ",
"2 2 2 2 2 2 2 2 2 2 2 2 2 : f ` %.$.1.4...l l A A c 6 X X 2 2 2 ",
"2 2 2 2 2 2 2 2 2 2 2 2 < : l ` X.@.$.%.@.~ u $ o X X $ 2 2 2 2 ",
"2 2 2 2 9 2 2 2 2 2 2 2 9 N T #.;.%.| | | ( T f & 2 5 2 2 2 2 2 ",
"2 2 2 u f f 9 2 2 2 2 9 J | ` } ;.-.| ) T J Z : : 2 2 2 2 2 2 2 ",
"2 2 9 f f f r 2 < 2 - Z ` | $.` ) | ` J Z x 2 $ 2 2 2 2 2 2 2 2 ",
"2 < 9 f u u u f u 2 9 J ` | =.@.T A Z h 9 & $ - 2 2 2 2 2 2 2 2 ",
"2 2 2 e 9 f v Z N h u G ~ ( ` ` Q A f : $ : 2 2 2 2 2 2 2 2 2 2 ",
"2 2 2 2 6 l Z A N Z A T ( W T ! J A a : 2 2 2 2 2 2 2 2 2 2 2 2 ",
"2 2 2 , 6 l v Z H ` ( T ` ( J A Z h - : 2 2 2 2 2 2 2 2 2 2 2 2 ",
"2 2 2 2 2 f x v ! ` ` T J J Z f u > : 2 2 2 2 2 2 2 2 2 2 2 2 2 ",
"2 2 2 2 2 6 u l T I W T A v 9 & $ : 2 2 2 2 2 2 2 2 2 2 2 2 2 2 ",
"2 2 2 2 2 - : u Z A H J A v e : 2 2 2 2 2 2 2 2 2 2 2 2 2 2 2 2 ",
"2 2 2 2 2 2 < 6 l N Z Z v f 2 2 2 2 2 2 2 2 2 2 2 2 2 2 2 2 2 2 ",
"2 2 2 2 2 2 2 2 9 f f f u 2 < 2 2 2 2 2 2 2 2 2 2 2 2 2 2 2 2 2 ",
"2 2 2 2 2 2 2 2 2 < < , : < 2 2 2 2 2 2 2 2 2 2 2 2 2 2 2 2 2 2 ",
"2 2 2 2 2 2 2 2 2 2 < < 2 2 2 2 2 2 2 2 2 2 2 2 2 2 2 2 2 2 2 2 ",
"2 2 2 2 2 2 2 2 2 2 2 2 2 2 2 2 2 2 2 2 2 2 2 2 2 2 2 2 2 2 2 2 ",
"2 2 2 2 2 2 2 2 2 2 2 2 2 2 2 2 2 2 2 2 2 2 2 2 2 2 2 2 2 2 2 2 ",
"2 2 2 2 2 2 2 2 2 2 2 2 2 2 2 2 2 2 2 2 2 2 2 2 2 2 2 2 2 2 2 2 ",
"2 2 2 2 2 2 2 2 2 2 2 2 2 2 2 2 2 2 2 2 2 2 2 2 2 2 2 2 2 2 2 2 "
};
