/* XPM */
static char *pdiSolverIcon[] = {
/* columns rows colors chars-per-pixel */
"32 32 87 1",
"  c #505050",
". c #515151",
"X c gray32",
"o c #535353",
"O c gray33",
"+ c #555555",
"@ c #565656",
"# c gray34",
"$ c gray35",
"% c #5B5B5B",
"& c gray36",
"* c #5D5D5D",
"= c gray37",
"- c gray38",
"; c #626262",
": c gray39",
"> c #656565",
", c #6C6C6C",
"< c #6F6F6F",
"1 c #717171",
"2 c #727272",
"3 c gray45",
"4 c #747474",
"5 c #767676",
"6 c #777777",
"7 c gray47",
"8 c #797979",
"9 c gray48",
"0 c #7B7B7B",
"q c #7C7C7C",
"w c #7E7E7E",
"e c gray50",
"r c gray53",
"t c #888888",
"y c #898989",
"u c gray54",
"i c #8B8B8B",
"p c #8D8D8D",
"a c #8E8E8E",
"s c gray56",
"d c #909090",
"f c gray57",
"g c #939393",
"h c gray59",
"j c #979797",
"k c #989898",
"l c #9B9B9B",
"z c gray61",
"x c #9D9D9D",
"c c gray62",
"v c #A0A0A0",
"b c gray64",
"n c #A7A7A7",
"m c #AAAAAA",
"M c gray67",
"N c #ACACAC",
"B c gray68",
"V c #AEAEAE",
"C c #AFAFAF",
"Z c gray69",
"A c #B1B1B1",
"S c #B2B2B2",
"D c gray70",
"F c #BBBBBB",
"G c #BCBCBC",
"H c gray",
"J c #C3C3C3",
"K c gray77",
"L c #C8C8C8",
"P c gray79",
"I c #CACACA",
"U c #CBCBCB",
"Y c #CECECE",
"T c gray81",
"R c #D0D0D0",
"E c LightGray",
"W c gray84",
"Q c #D7D7D7",
"! c gainsboro",
"~ c #DDDDDD",
"^ c #DFDFDF",
"/ c gray88",
"( c #E1E1E1",
") c #E2E2E2",
"_ c gray89",
"` c #E4E4E4",
"' c #E6E6E6",
/* pixels */
"++++++++++++++++++++++++++++++++",
"++++.+++++++++++++++++++++++++++",
"+++:*.++++++++++++++++++++++++++",
"++.tv5..++++++++++++++++++++++++",
"++ rDMt>+.++++++++++++++++++++++",
"++ rCMCnt*.+++++++++++++++++++++",
"++ rCMMMCk5#.+++++++++++++++++++",
"++ rCMMMMCCc3..+++++++++++++++++",
"++.rCMnMnMnCnr>..+++++++++++++++",
"++.rCMMMMMMMMCnt*.++++++++++++++",
"++.rCMMMMMnMMMMDc5#.++++++++++++",
"++.rCnMnMnMMMnMMCCk:++++++.+++++",
"++.rCMMMnMMnMMMMCMMJ++++++++++++",
"++.rCMMnMMMMMMCMJJM8q8qqqqqqq8>+",
"++.rCMnMnMnMMMKRnttaaaaafaaaff:.",
"++.rCMMMMMMCKQc5335553353535qf:+",
"++.rCMMMMCJWDg35555555555555qf:.",
"++.rCMMMHRF<8t<33333333333338f>.",
"++.rCMMRUr.+8CDDCDCCDCCCCDCCDk:.",
"++ rnMQg..+#8K`(((((((((((((`c:.",
"++.rKW*.++++8K`!!!!!!!!!!!!!!c:.",
"+++rt.++++++qK(!!!!!!!!!!!!((c:.",
"+++..+++++++5K(!!!!!!!!!!!!!!c:.",
"++++++++++++8K(!!!!!!!!!!!!!!c:.",
"++++++++++++8K(!!!!!!!!!!!!!(c:.",
"++++++++++++8K(!!!!!!!!!!!!!!c:.",
"+++++++++++#8U(!!!!!!!!!!!!!!c:.",
"++++++++++++8K`(!(((((((((((`c:.",
"++++++++++++8HUKKKKUKKUKUKKKUk:+",
"++++++++++.#385888885888888888>.",
"+++++++++++++++++++#+++++#+++#++",
"++++++++++++++++++++++++++++++++"
};
