/* XPM */
static char *pdiSolverIcon[] = {
/* columns rows colors chars-per-pixel */
"32 32 78 1",
"  c #58585D",
". c #5A595F",
"X c #5A5A5F",
"o c #5C5C61",
"O c #5D5D62",
"+ c #5F5F64",
"@ c #616165",
"# c #626267",
"$ c #646469",
"% c #66666A",
"& c #69696D",
"* c #6C6C70",
"= c #757478",
"- c #78787C",
"; c #7A797D",
": c #7E7E82",
"> c #D51024",
", c #E8051B",
"< c #F8091F",
"1 c #808084",
"2 c #828285",
"3 c #858588",
"4 c #88888B",
"5 c #8C8B8F",
"6 c #8F8F92",
"7 c #919093",
"8 c #969598",
"9 c #97979A",
"0 c #9C9C9F",
"q c #A09FA2",
"w c #A1A1A3",
"e c #A6A6A8",
"r c #ABABAD",
"t c #B0B0B2",
"y c #B4B3B5",
"u c #B9B8BA",
"i c #BCBBBD",
"p c #BEBDBE",
"a c #C3C2C3",
"s c #C6C5C6",
"d c #C7C7C8",
"f c #CBCBCC",
"g c #CECDCE",
"h c #D0CFD0",
"j c #D2D2D7",
"k c #D5D4D5",
"l c #D6D6D7",
"z c #D5D4D9",
"x c gray85",
"c c #DAD9D9",
"v c #DBDADB",
"b c gray86",
"n c #DBD9DE",
"m c #DBDBDC",
"M c #DDDCDC",
"N c #DEDEDF",
"B c #DFDEDE",
"V c #DFDAE1",
"C c #E2DDE4",
"Z c #E2E2E4",
"A c #E6E6E7",
"S c #E7E6E6",
"D c #E3E4E8",
"F c #E5E6EA",
"G c #EAE2EB",
"H c #E8E6EB",
"J c #EAE7EB",
"K c #EAE9EB",
"L c #EAEAEB",
"P c gray94",
"I c #F9F9F9",
"U c #FBFBFB",
"Y c #FBF9FE",
"T c #FEF9FF",
"R c #FDFDFD",
"E c #FFFDFF",
"W c #FFFEFF",
"Q c gray100",
/* pixels */
"XXXXXXXXXXXXXXXXXXXXXXXXXXXXXXXX",
"XXXXXXXXXXXXXXXXXXXXXXXXXXXXXXXX",
"XXXXXXFDXXXXXXXXXXXXXXXXXXXXXXXX",
"XXXXXKHKKXXXXXXXXXXXXXXXXXXXXXXX",
"XXXXjnWYzZXXXXXXXXXXXXXXXXXXXXXX",
"XXXXKKWTKKXXXXXXXXXXXXXXXXXXXXXX",
"XXXXXCKKCXXXXXXXXXXXXXXXXXXXXXXX",
"XXXXXXHGXXXXXXXXXXXXXXXXXXXXXXXX",
"XXXXXXXXXXXXXXXXXXXXXXXXXXXXXXXX",
"XXXXXXXXXXXXXXXXXXXXXXXXXXXXXXXX",
"XXXXXXXXXXXXXXXXXXXXXXXXXXXXXXXX",
"XXXXXX,XXXXXXXXXXXXXXXXXXXXXXXXX",
"XXXXXX<X XXXXXXXXXXXXXXXXXXXXXXX",
"XXXXXX<XX XXXXXXXXXXXXXXXXXXXXXX",
"XXXX,<<<,XXXXXXXXXXXXXXXXXXXXXXX",
"XXXXX,<,XXXXXXXXXXXXXXXXXXXXXXXX",
"XXXXXX>XXXXXXXXXXXXXXXXXXXXXXXXX",
"XXXXXXXXXXXXXXXXXXXXXXXXXXXXXXXX",
"XXXXXXXXXXXXXXXXXXXXXXXXXXXXXXXX",
"XXXXXXXXXXXXXXXXXXXXXXXXXXXXXXXX",
"X@s9%XXXXXXXXXXXXXXXXXXXXXXXXXXX",
"XX:tBi5@XXXXXXXXXXXXXXXXXXXXXXXX",
"XXXX@4iBy2XXXXXXXXXXXXXXXXXXXXXX",
"XXXXXXX$8dxe=XXXXXXXXXXXXXXXXXXX",
"XXXXXXXXXX&wkh0&XXXXXXXXXXXbKlXX",
"XXXXXXXXXXXXX;rba7#XXXXXXXKKPKfX",
"XXXXXXXXXXXXXXXO3uMu3OXXXSSWWULX",
"XXXXXXXXXXXXXXXiXX#6aMr;XXNWILLX",
"XXXXXXXXXXXXXXAiAXXXX&0gkw&bxKXX",
"XXXXXXXXXXXXXXiAAXXXXXXX=ebd8%XX",
"XXXXXXXXXXXXXAiAAAXXXXXXXXX1yB-X",
"XXXXXXXXXXXXXiAAAAXXXXXXXXXXX+OX"
};
