/* XPM */
static char *pdiToolIcon[] = {
/* columns rows colors chars-per-pixel */
"32 32 90 1",
"  c #5A5A5F",
". c #5B5B5F",
"X c #5B5B60",
"o c #5C5C60",
"O c #5C5C61",
"+ c #5D5D61",
"@ c #5D5D62",
"# c #5E5E63",
"$ c #606065",
"% c #626266",
"& c #626267",
"* c #636368",
"= c #646468",
"- c #646469",
"; c #65656A",
": c #66666A",
"> c #66666B",
", c #67676B",
"< c #67676C",
"1 c #68686D",
"2 c #69696E",
"3 c #6A6A6E",
"4 c #6A6A6F",
"5 c #6B6B70",
"6 c #6C6C71",
"7 c #6D6D72",
"8 c #6E6E72",
"9 c #6F6F74",
"0 c #707074",
"q c #717176",
"w c #727276",
"e c #77777B",
"r c #77777C",
"t c #78787C",
"y c #79797D",
"u c #7B7B7F",
"i c #7C7C80",
"p c #7D7D81",
"a c #7E7E82",
"s c #808083",
"d c #828285",
"f c #838386",
"g c #848488",
"h c #858589",
"j c #86868A",
"k c #89898C",
"l c #89898D",
"z c #8A8A8E",
"x c #8B8B8E",
"c c #8B8B8F",
"v c #8C8C8F",
"b c #8C8C90",
"n c #8D8D90",
"m c #8E8E92",
"M c #919194",
"N c #939396",
"B c #96969A",
"V c #97979A",
"C c #9A9A9D",
"Z c #9B9B9E",
"A c #9C9C9F",
"S c #A0A0A3",
"D c #A1A1A4",
"F c #A4A4A6",
"G c #A4A4A7",
"H c #AAAAAC",
"J c #ACACAE",
"K c #ACACAF",
"L c #ADADB0",
"P c #AFAFB2",
"I c #B3B3B5",
"U c #B7B7B9",
"Y c #BEBEC0",
"T c #C1C1C3",
"R c #C6C6C8",
"E c #C9C9CB",
"W c #CDCDCE",
"Q c #CECED0",
"! c #D0D0D2",
"~ c #D3D3D4",
"^ c #D4D4D5",
"/ c #D5D5D6",
"( c #D8D8D9",
") c #D8D8DA",
"_ c #DCDCDD",
"` c #DDDDDE",
"' c #EFEFF0",
"] c #F5F5F6",
"[ c #FBFBFB",
"{ c gray100",
/* pixels */
"                                ",
"                                ",
"                                ",
"                [               ",
"               [[               ",
"        O-lHR [[['_TOs=         ",
"       0-(!PN -[[3um.A_PO.      ",
"     7J~&t      [   . iG O7     ",
"    e0G0                OVWh    ",
"   lZO                    m/7   ",
"  i(i                      3O7  ",
"  hZ     {(({   ({{    {    iU  ",
" f       {   {  {  (   (    O!x ",
" Uh      (   (  {  {   {    OOO ",
" _i      (   (  (   {  {    OO-.",
" E&      ({({   (   {  (     -] ",
"         {      {   {  (     =] ",
" Q0      (      (   {  {     O- ",
" 0       {      {   {  (     O  ",
"X*3X     (      {  (   {    OQx ",
"  YZ     {      ({{(   (    NY  ",
"  5-                        Oe  ",
"  X*Vl                    mIO   ",
"    hT9O                XlWh    ",
"     3XDJt       O    uJiO7     ",
"       uPO xfO-OO-OxP-mPuO      ",
"         OtHN S[{/ SJ&          ",
"                                ",
"                                ",
"                                ",
"                                ",
"                                "
};
