/* XPM */
static char *shatteritIcon[] = {
/* columns rows colors chars-per-pixel */
"32 32 180 2",
"   c black",
".  c #010101",
"X  c #020202",
"o  c #040404",
"O  c #070707",
"+  c #090909",
"@  c gray5",
"#  c #131313",
"$  c gray8",
"%  c #151515",
"&  c gray9",
"*  c #191919",
"=  c gray10",
"-  c #1B1B1B",
";  c gray11",
":  c #1D1D1D",
">  c gray12",
",  c #232323",
"<  c gray14",
"1  c gray15",
"2  c #272727",
"3  c #282828",
"4  c gray16",
"5  c #2D2D2D",
"6  c #2F2F2F",
"7  c #313131",
"8  c #323232",
"9  c gray20",
"0  c #353535",
"q  c gray22",
"w  c #3A3A3A",
"e  c #3C3C3C",
"r  c gray24",
"t  c #3F3F3F",
"y  c gray25",
"u  c gray26",
"i  c #434343",
"p  c gray27",
"a  c gray28",
"s  c #484848",
"d  c #494949",
"f  c gray29",
"g  c #4B4B4B",
"h  c #4C4C4C",
"j  c gray30",
"k  c #4E4E4E",
"l  c gray31",
"z  c #505050",
"x  c #515151",
"c  c gray32",
"v  c #535353",
"b  c gray33",
"n  c #555555",
"m  c #565656",
"M  c gray34",
"N  c #585858",
"B  c gray35",
"V  c #5A5A5A",
"C  c #5B5B5B",
"Z  c gray36",
"A  c #5D5D5D",
"S  c gray37",
"D  c #5F5F5F",
"F  c #606060",
"G  c gray38",
"H  c #626262",
"J  c gray39",
"K  c #646464",
"L  c #656565",
"P  c gray40",
"I  c #676767",
"U  c #686868",
"Y  c DimGray",
"T  c #6A6A6A",
"R  c gray42",
"E  c #6C6C6C",
"W  c #6D6D6D",
"Q  c #6F6F6F",
"!  c gray44",
"~  c #717171",
"^  c #727272",
"/  c gray45",
"(  c #747474",
")  c #767676",
"_  c #777777",
"`  c #797979",
"'  c #7B7B7B",
"]  c #7C7C7C",
"[  c gray49",
"{  c #7E7E7E",
"}  c gray50",
"|  c #808080",
" . c #818181",
".. c gray51",
"X. c #838383",
"o. c #868686",
"O. c gray53",
"+. c #888888",
"@. c #898989",
"#. c gray54",
"$. c #8D8D8D",
"%. c #8E8E8E",
"&. c gray56",
"*. c gray57",
"=. c #939393",
"-. c #959595",
";. c #979797",
":. c #989898",
">. c gray60",
",. c #9B9B9B",
"<. c #9D9D9D",
"1. c gray62",
"2. c #9F9F9F",
"3. c #A0A0A0",
"4. c #A2A2A2",
"5. c gray64",
"6. c #A5A5A5",
"7. c gray65",
"8. c #A7A7A7",
"9. c gray66",
"0. c #A9A9A9",
"q. c #AAAAAA",
"w. c gray67",
"e. c #ACACAC",
"r. c gray68",
"t. c #AEAEAE",
"y. c #AFAFAF",
"u. c gray69",
"i. c #B1B1B1",
"p. c #B2B2B2",
"a. c gray70",
"s. c #B4B4B4",
"d. c gray71",
"f. c #B6B6B6",
"g. c #B7B7B7",
"h. c gray72",
"j. c #B9B9B9",
"k. c gray73",
"l. c #BBBBBB",
"z. c #BCBCBC",
"x. c gray74",
"c. c gray",
"v. c gray75",
"b. c #C0C0C0",
"n. c #C3C3C3",
"m. c gray77",
"M. c #C8C8C8",
"N. c gray79",
"B. c #CACACA",
"V. c gray80",
"C. c #CECECE",
"Z. c gray81",
"A. c #D0D0D0",
"S. c gray82",
"D. c #D2D2D2",
"F. c LightGray",
"G. c #D5D5D5",
"H. c gray84",
"J. c #D7D7D7",
"K. c #D8D8D8",
"L. c gray85",
"P. c gray86",
"I. c gainsboro",
"U. c #DDDDDD",
"Y. c gray87",
"T. c #DFDFDF",
"R. c gray88",
"E. c #E1E1E1",
"W. c #E2E2E2",
"Q. c gray89",
"!. c #E4E4E4",
"~. c gray90",
"^. c #E6E6E6",
"/. c #E7E7E7",
"(. c gray91",
"). c #E9E9E9",
"_. c #EAEAEA",
"`. c #ECECEC",
"'. c #EFEFEF",
"]. c gray96",
/* pixels */
"l l l l l l l l v l l l a a C _ v Y ;.' l a a l l l l l l l l l ",
"l l l l l l l l a a a C [ 6.H.<.v H./.P.k.' v a l l l l l l l l ",
"l l l l l l a a S  .w.Z.Q.^.Q.w X.^.P.Q.Q.Q.v.[ v a l l l l l l ",
"l l l a a Y &.d.Z.Q.^.Q.P.^.;.= B.Q.P.P.P.P.Q.^.v. .v a l l l l ",
"l a v ~ C Y w.Z.Q.^.Q.P.Q.P.8 Y /.P.P.P.P.P.P.P.Q.Q.n.~ a a l l ",
"m <.B.P.H.w.X.Y Y #.d.H.`.=.# m.^.P.P.P.Q.P.P.P.P.P.^._ #. .v a ",
"v =.P.Q.P.^./.P.v.&.Y m C > K /.P.P.P.Q.P.P.P.Q.P.P.P.C a./.v.~ ",
"l C [ B.^.P.P.P.P.^.Q.Z.C . w.^.P.P.P.P.P.P.P.P.P.Q.P.l d.P.B.=.",
"l G S W k.Q.P.P.P.P.P.].&.. 5.`.^.Q.P.P.P.P.P.P.P.P.5.6 a.d.d.[ ",
"l S K G G w.Q.P.Q.^.^.5.4 . 6 ~ 5.Z.Q.^.^.P.P.Z.v.d.0 Y k.a.d.Y ",
"l C K K G S =.P./.k.l . y #.G 8 = 2 m #.k.Z.v.a.k.Y w d.d.d.a.C ",
"l S K K K G C  .W O = =.Q./.^.H.a.[ a = 4 5.d.d.,., ,.k.d.d.6.v ",
"l l G K K K K l O K Z./.P.P.P.Q.Q./.P.y.4 K v.k.t K v.a.d.k.;.l ",
"v w v K K K Y 2 6 y.Q.Q.P.P.P.P.P.H.v.v.~ 2 y.' 8 d.d.d.a.k.#.a ",
"l l y K K K C $ m G  .B.^.P.P.P.B.a.a.d.y.8 v 8 =.k.d.a.d.k.' a ",
"l m a v Y Y 8 4 Y G S Y w.P.P.v.a.a.a.a.v._ . a v.d.a.d.d.d.Y a ",
"l v S y K C $ v K K K G C &.d.a.a.a.d.a.d.w.+ v v.d.a.a.d.y.C a ",
"l l G a C t 4 Y K K K K S ' d.d.a.d.a.d.d.y.@ a k.k.v.v.v.6.v l ",
"l l G S w , m K K K K K G  .d.d.d.a.d.a.d.y.= $ w a l S #.X.l l ",
"l l l G t 8 Y K K K K K S #.k.a.a.d.a.d.k.&.m &.' W S v S l l l ",
"l l v a 0 a Y K K K K K S &.k.d.d.a.d.a.k.m ,.v.k.v.v.n.,.v l l ",
"l l m G 6 m K K K K K K G =.k.a.a.d.d.k.&.G k.d.d.a.d.v.X.a l l ",
"l l l m v a Y K K K K K G ,.k.d.d.a.d.d.C ;.k.d.a.k.d.&.m l l l ",
"l l l l v t G K K K K K K <.d.d.a.d.k.=.G k.a.d.k.6.W l a l l l ",
"l l l l v t C K K K K K K 5.d.d.d.a.k.C ;.k.k.d.X.m a l v l l l ",
"l l l l l l m G K K K G K w.d.a.a.k.&.C k.k.<.K a l l l l l l l ",
"l l l l l l l m K K K K Y y.a.d.d.k.G <.a.[ l a l l l l l l l l ",
"l l l l l l l l C K K G Y a.d.a.d.=.G ,.S a l l l l l l l l l l ",
"l l l l l l l l a C K G ~ a.d.d.v.~ m v a v l l l l l l l l l l ",
"l l l l l l l l l l S G _ d.k.y.[ v a l l l l l l l l l l l l l ",
"l l l l l l l l l l l C [ k.,.G a l l l l l l l l l l l l l l l ",
"l l l l l l l l l l l l _ [ l a v l l l l l l l l l l l l l l l "
};
