/* XPM */
static char *thinkineticIco[] = {
/* columns rows colors chars-per-pixel */
"32 32 147 2",
"   c #008FDC",
".  c #0093DD",
"X  c #0094DD",
"o  c #0095DE",
"O  c #0096DE",
"+  c #0097DE",
"@  c #0098DE",
"#  c #0098DF",
"$  c #0099DE",
"%  c #0099DF",
"&  c #009ADF",
"*  c #009BDF",
"=  c #009AE0",
"-  c #009BE0",
";  c #009CE0",
":  c #009DE0",
">  c #019DE0",
",  c #029DE0",
"<  c #029EE0",
"1  c #049DE0",
"2  c #069FE0",
"3  c #089DE0",
"4  c #08A0E1",
"5  c #0BA2E1",
"6  c #0DA2E1",
"7  c #0DA2E2",
"8  c #0EA2E2",
"9  c #0FA3E2",
"0  c #14A5E2",
"q  c #15A5E2",
"w  c #18A6E3",
"e  c #19A6E3",
"r  c #1BA7E3",
"t  c #1BA8E3",
"y  c #1DA8E3",
"u  c #20AAE4",
"i  c #22AAE4",
"p  c #23ABE5",
"a  c #24ABE4",
"s  c #26ACE5",
"d  c #28ACE5",
"f  c #2AADE5",
"g  c #2AAEE5",
"h  c #2BAEE5",
"j  c #2DAEE6",
"k  c #2FAFE6",
"l  c #34B1E6",
"z  c #35B2E6",
"x  c #36B2E7",
"c  c #38B3E7",
"v  c #3AB4E7",
"b  c #3DB3E7",
"n  c #3CB4E7",
"m  c #3DB5E8",
"M  c #3FB6E8",
"N  c #41B6E8",
"B  c #44B7E9",
"V  c #4ABAE9",
"C  c #4DBBE9",
"Z  c #4FBBEA",
"A  c #50BCEA",
"S  c #53BCEA",
"D  c #53BDEA",
"F  c #56BEEB",
"G  c #60BEEA",
"H  c #5BC0EB",
"J  c #5FC2EC",
"K  c #61C2EC",
"L  c #65C4EC",
"P  c #76CAEE",
"I  c #77CAEF",
"U  c #77CBEE",
"Y  c #77CBEF",
"T  c #78CBEF",
"R  c #79CBEF",
"E  c #7DCDEF",
"W  c #80CBEF",
"Q  c #80CDEF",
"!  c #80CEF0",
"~  c #81CFF0",
"^  c #83CFF0",
"/  c #85D0F0",
"(  c #85D1F0",
")  c #86D1F0",
"_  c #87D1F1",
"`  c #8AD2F1",
"'  c #8BD3F1",
"]  c #8ED3F1",
"[  c #8ED4F1",
"{  c #90D4F1",
"}  c #96D7F2",
"|  c #99D8F2",
" . c #99D8F3",
".. c #9AD8F3",
"X. c #9AD9F3",
"o. c #9BD8F3",
"O. c #9CD9F3",
"+. c #9DD9F3",
"@. c #A6DCF4",
"#. c #A7DDF4",
"$. c #A8DDF4",
"%. c #A8DEF4",
"&. c #AADEF4",
"*. c #ABDFF5",
"=. c #ADE0F5",
"-. c #AEE0F5",
";. c #B2E1F6",
":. c #B6E2F6",
">. c #B7E4F6",
",. c #BBE5F7",
"<. c #C0E7F7",
"1. c #C0E7F8",
"2. c #C1E7F8",
"3. c #C2E8F8",
"4. c #C3E8F8",
"5. c #C4E8F8",
"6. c #C4E9F8",
"7. c #C6EAF8",
"8. c #CCEBF9",
"9. c #D0EDF9",
"0. c #D4EFFA",
"q. c #D6EFFA",
"w. c #DFF3FB",
"e. c #E7F6FC",
"r. c #E8F6FC",
"t. c #E9F6FC",
"y. c #E9F7FC",
"u. c #ECF8FC",
"i. c #EDF8FD",
"p. c #EFF9FD",
"a. c #F0F9FD",
"s. c #F1F9FD",
"d. c #F0FAFD",
"f. c #F2FAFD",
"g. c #F3FAFE",
"h. c #F3FBFE",
"j. c #F4FBFE",
"k. c #F6FCFE",
"l. c #F7FCFE",
"z. c #F8FCFE",
"x. c #F9FDFE",
"c. c #FAFDFE",
"v. c #FAFDFF",
"b. c #FCFEFF",
"n. c #FDFEFF",
"m. c #FEFFFF",
"M. c gray100",
/* pixels */
"M.M.M.M.M.M.M.M.M.M.M.M.M.M.M.M.M.M.M.M.M.M.M.M.M.M.M.M.M.M.M.M.",
"M.M.M.M.M.M.M.M.M.M.M.M.M.M.M.M.M.M.M.M.M.M.M.M.M.M.M.M.M.M.M.M.",
"M.M.M.M.M.M.M.M.M.M.M.M.M.M.M.M.M.M.M.M.M.M.M.M.M.M.M.M.M.M.M.M.",
"M.M.M.M.M.M.i.:.M.M.M.i.F R  .3.d.,.W ! ! E _ c.c._ ! ! ! W <.M.",
"M.M.M.M.M.M.' + n -.M.0.% % * ; w w + + + . ; h.k.* + % +   P M.",
"M.M.M.M.M.d.u % % * N K ; ; ; ; 8 x * ; * % 9 h.h.8 % ; ; + ! M.",
"M.M.M.M.M.} % ; ; ; * * ; ; ; ; y L % ; ; * 0 k.k.9 * ; ; + ! M.",
"M.M.M.M.k.h % ; ; ; 5 s * * ; % l R % * ; * 9 h.h.9 % ; ; + ! M.",
"M.M.M.M.X.; ; * * ; B z * * * - K ~ % * ; * 9 k.h.9 * ; * % ~ M.",
"M.M.M.k.h ; * * 4 * =.t * * 4 - _ [ % ; ; * 9 h.k.9 * ; * % ! M.",
"M.M.M.#.; * * * % V 7.4 ; * ; % %.[ % ; ; * 9 h.d.9 * ; ; + ! M.",
"M.M.c.l * * * * ; 3.=.- ; ; ; ; 9.' % * * * 9 k.k.8 * ; ; + ! M.",
"M.M.&.% * * ; % v M.E + ; ; ; 5 k.' + * ; * 9 h.k.9 * ; ; + ! M.",
"M.M.x % * * ; * -.M.F + ; ; % s M.E + ; ; * 9 k.h.9 * ; ; + ! M.",
"M.;.% ; * * ; z c.M.h - ; * ; A M.! + ; ; * 9 k.k.9 * ; ; + ! M.",
"M.m % ; * 4 ; =.M.y.8 - ; ; % P M.! + ; ; * 9 h.h.9 * ; ; + ! M.",
">.; * * ; % k c.M.7.* ; ; ; % o.M.! + ; ; * 9 h.k.9 * * * % ~ M.",
"m ; 4 * ; % o.M.M.+.* ; ; * * <.M.! + ; ; * 9 k.h.9 * ; * * E M.",
"; * ; * % h k.M.M.R % ; ; ; 8 e.M.! + ; ; * 9 k.h.9 * ; ; + ! M.",
"* * ; ; % o.M.M.M.A * * ; * s c.M.! + ; ; * 9 h.k.9 * ; ; + ! M.",
"* 4 * ; u j.M.M.c.h % ; ; % F M.M.! + ; ; * 9 h.k.9 * ; ; + ! M.",
"4 * ; ; ] M.M.M.y.8 ; ; * + R M.M.! + ; ; * 9 k.h.9 * ; ; + ! M.",
"; ; ; p d.M.M.M.6.* ; ; ; % o.M.M.! + ; ; * 9 h.k.9 * ; ; + ! M.",
"; ; % ' M.M.M.M. .% ; ; ; * 5.M.M.! + ; ; * 9 k.h.9 * ; ; + ! M.",
"; * y i.M.M.M.M.R + * ; ; 0 t.M.M.! + ; ; - 0 j.h.9 * ; ; + ! M.",
"* % ! M.M.M.M.M.A @ ; ; % h z.M.M.! + ; ; - 8 j.k.9 % ; ; % ! M.",
"0 0 y.M.M.M.M.c.v * % + . C M.M.M.P   + + + ; j.h.; + + +   P M.",
"w.<.M.M.M.M.M.M.d.0.-._ F @.M.M.M.<.W ! ! W ^ c.c._ E ! ! E 3.M.",
"M.M.M.M.M.M.M.M.M.M.M.M.M.M.M.M.M.M.M.M.M.M.M.M.M.M.M.M.M.M.M.M.",
"M.M.M.M.M.M.M.M.M.M.M.M.M.M.M.M.M.M.M.M.M.M.M.M.M.M.M.M.M.M.M.M.",
"M.M.M.M.M.M.M.M.M.M.M.M.M.M.M.M.M.M.M.M.M.M.M.M.M.M.M.M.M.M.M.M.",
"M.M.M.M.M.M.M.M.M.M.M.M.M.M.M.M.M.M.M.M.M.M.M.M.M.M.M.M.M.M.M.M."
};
