/* XPM */
static char *AS_[] = {
/* columns rows colors chars-per-pixel */
"32 32 198 2",
"   c #755326",
".  c #8E5917",
"X  c #935E19",
"o  c #985F19",
"O  c #95611D",
"+  c #9C651C",
"@  c #A1661A",
"#  c #AC6E1D",
"$  c #B06F1C",
"%  c #BF771D",
"&  c #8D5F24",
"*  c #855F2A",
"=  c #8B612C",
"-  c #906224",
";  c #9E6821",
":  c #9F7032",
">  c #A96F21",
",  c #AD7527",
"<  c #A9732A",
"1  c #B1792D",
"2  c #BF7F28",
"3  c #A97632",
"4  c #B07B33",
"5  c #C97917",
"6  c #C1751B",
"7  c #C1791F",
"8  c #CB7D1E",
"9  c #DA7F11",
"0  c #C47D23",
"q  c #A57A40",
"w  c #BF8331",
"e  c #DA841A",
"r  c #DD8A1F",
"t  c #E68916",
"y  c #E38E1D",
"u  c #EE8F19",
"i  c #F08D18",
"p  c #E7901F",
"a  c #F79513",
"s  c #F99317",
"d  c #F7951A",
"f  c #F8961D",
"g  c #F6981E",
"h  c #F9991F",
"j  c #C58126",
"k  c #CA8021",
"l  c #C5832B",
"z  c #CA8529",
"x  c #CE892B",
"c  c #D68723",
"v  c #DE8B24",
"b  c #D58B2A",
"n  c #DF932D",
"m  c #C68A37",
"M  c #C88E3C",
"N  c #D69133",
"B  c #DC9435",
"V  c #D5943B",
"C  c #D9963D",
"Z  c #E38F22",
"A  c #E59024",
"S  c #ED9527",
"D  c #E5952D",
"F  c #E99528",
"G  c #ED9B2E",
"H  c #F29524",
"J  c #F59A26",
"K  c #F99A25",
"L  c #F4972D",
"P  c #F39C2D",
"I  c #F99D2A",
"U  c #E49834",
"Y  c #EC9C32",
"T  c #E29B3B",
"R  c #F39E33",
"E  c #FA9F30",
"W  c #F29E38",
"Q  c #F7A12F",
"!  c #F9A12E",
"~  c #EFA03D",
"^  c #F5A233",
"/  c #F9A434",
"(  c #F4A33B",
")  c #FAA63B",
"_  c #F9A93B",
"`  c #BB8A47",
"'  c #AC8A5D",
"]  c #AB9273",
"[  c #A99379",
"{  c #B39774",
"}  c #B59975",
"|  c #BA9C72",
" . c #B59B78",
".. c #E39F43",
"X. c #D8A158",
"o. c #E4A145",
"O. c #EDA340",
"+. c #F4A443",
"@. c #F9A742",
"#. c #F6A943",
"$. c #FAAA43",
"%. c #F5A74E",
"&. c #F4AA49",
"*. c #FAAC4B",
"=. c #F6B948",
"-. c #ECAC57",
";. c #E1A758",
":. c #E7AB5E",
">. c #EBAC5A",
",. c #F3AD55",
"<. c #FBAF57",
"1. c #EFB35E",
"2. c #F6B156",
"3. c #FBB157",
"4. c #F4B35C",
"5. c #FAB25B",
"6. c #CAAA7F",
"7. c #DCB277",
"8. c #E6B36F",
"9. c #EDB26B",
"0. c #F5B562",
"q. c #FAB662",
"w. c #F5B865",
"e. c #FABA63",
"r. c #F2B468",
"t. c #F6BA6C",
"y. c #F9BA6B",
"u. c #ECB370",
"i. c #EABB7C",
"p. c #F1B772",
"a. c #F4BC75",
"s. c #F9BB72",
"d. c #F0BA7F",
"f. c #F9BF7B",
"g. c #F8C176",
"h. c #F5C27E",
"j. c #FAC27D",
"k. c #CFB592",
"l. c #D9BC96",
"z. c #E0BB8A",
"x. c #ECC387",
"c. c #F5C483",
"v. c #FDC683",
"b. c #F9C986",
"n. c #F7CA8C",
"m. c #FACA8A",
"M. c #E7C495",
"N. c #E8C495",
"B. c #E2C39B",
"V. c #E8C79B",
"C. c #EAC89C",
"Z. c #F7CE93",
"A. c #F9CD93",
"S. c #F4CF99",
"D. c #F5D196",
"F. c #F5D19B",
"G. c #F9D29D",
"H. c #CFC0AB",
"J. c #D2C1AA",
"K. c #D6C5B0",
"L. c #DBCBB7",
"P. c #DCCFBF",
"I. c #EACBA3",
"U. c #E2CCAF",
"Y. c #EED0AA",
"T. c #F5D3A5",
"R. c #FAD5A2",
"E. c #F1D3AD",
"W. c #F9D6A8",
"Q. c #F7D8A8",
"!. c #FCDBAC",
"~. c #F7DDB0",
"^. c #FADCB3",
"/. c #FADFBB",
"(. c #F6E1BD",
"). c #FBE2BB",
"_. c #DFD4C5",
"`. c #EADDCB",
"'. c #E7DED2",
"]. c #E9DFD2",
"[. c #FBE4C2",
"{. c #F2E3CE",
"}. c #FAE4C8",
"|. c #F7E9C8",
" X c #FBE9CB",
".X c #E7E0D7",
"XX c #E9E3D9",
"oX c #F2E4D3",
"OX c #FBEAD3",
"+X c #FDEED9",
"@X c #F4ECE3",
"#X c #F2EEE8",
"$X c #F7F0E7",
"%X c #FAF0E5",
"&X c #F6F2EC",
"*X c #F9F6F2",
"=X c #FFFFFE",
"-X c None",
/* pixels */
"-X-X-X-X-X-X-X-X-X-X-X-X-X-X-X-X-X-X-X-X-X-X-X-X-X-X-X-X-X-X-X-X",
"-X-X-X-X-X-X-X-X-X-X-X-X-X4.z.b.v.s.-X-X-X-X-X-X-X-X-X-X-X-X-X-X",
"-X-X-X-X-X-X-X-X-X0.0.b./.OX+X+X+X+X[.G.h.4.-X-X-X-X-X-X-X-X-X-X",
"-X-X-X-X-X-X-X-X4.A. X X).!.R.G.G.W./.}. X^.a.-X-X-X-X-X-X-X-X-X",
"-X-X-X-X-X-Xy.s.}.).A.v.v.v.v.v.v.v.j.j.m./. Xm.r.-X-X-X-X-X-X-X",
"-X-X-X-X-X0.j.).A.s.s.a.p.u.u.u.u.9.9.9.r.e.b.).A.0.-X-X-X-X-X-X",
"-X-X-X-Xw.s.[.f.q.y.T.%X%X@X@X@X@X@X@XoXX.>.0.s.).c.4.-X-X-X-X-X",
"-X-X-X-X,.!.t.3.q.4.E.=X=X=X=X=X=X=X=X=X` C >.5.5.!.y.-X-X-X-X-X",
"-X-X-X) R.f.*.<.<.,.I.=X#X[ ] { { } | | 4 V O.*.*.y.^.@.-X-X-X-X",
"-X-Xe.,.G.@.*.*.*.%.I.=X.X  = : 3 < < 1 l B ~ $.$._ v.s.W -X-X-X",
"-X-XL m.3.) ) $.$.+.V.=XXX* 3 M V N N N T Y ) $.$._ *.G.I -X-X-X",
"-X-X( G./ ) ) ) _ ( V.=XXX- w o.( #.~ ^ _ / / _ _ ) I A.4.-X-X-X",
"-X-Xt.c.h ! / / ! G M.=X.X- w T ^ ( ^ / ^ / / / ) / I t.A.+.-X-X",
"-X+.A.0.f K I E ! P M.=X#X} 6.7.X.~ D G ^ / / / I I I @.W.R -X-X",
"-X+.R.&.K K I I ! P C.=X=X=X=X=X=X$XB.V D ^ ^ ! I I K I G.) -X-X",
"-X$.G.@.K K I ! / P 8.U.J.H.J.'.*X=X=X`.m n P / E P K K S.R -X-X",
"-X+.G.$.K K ! ! / ^ U m , ; + ; 3 H.=X=Xk.l D P ! I K K S.( -X-X",
"-X( S.2.f I I / _ ^ ^ T N x z l w > .X=XXX> b F ! J K _ R.W -X-X",
"-X=.f.f.a I I ! _ / Q ^ ^ G P Y D b l.=X&XX z F I K g 5.D.^ -X-X",
"-X-X&.G.f K I ! / / _ _ / ! _ / ^ G z.=X#XX 0 F I I a m.t.-X-X-X",
"-X-XL F.( K I K / _ / _ _ / / / Q Y {.=X_.X 0 S J I K T.R -X-X-X",
"-X-X#.w.b.a K ! _ ^ ^ Q ! ^ ^ I G i.=X=X} O 0 S I s q.c.R -X-X-X",
"-X-X-XI ~.&.g J ^ ^ 4.-.o...T :.Y.=X=X_.& # c H h ^ /.R -X-X-X-X",
"-X-X-X-X@.Q.J f / ^ OX=X=X*X=X=X=X=XJ.- + 7 Z K f D.0.%.-X-X-X-X",
"-X-X-X-X^ 0.~.J g Y Y.$X&X&X&X@XL.' . + 7 v S s F.h.J -X-X-X-X-X",
"-X-X-X-X-X^ 0.W.+.u v % @ O X X O @ $ 8 v u ^ F.c.I -X-X-X-X-X-X",
"-X-X-X-X-X-XR +.[.p.F e 5 6 7 7 7 8 e t H 0.(.0.H -X-X-X-X-X-X-X",
"-X-X-X-X-X-X-X2.L a.S.x.-.U Z y p Y -.h.T.c.R &.-X-X-X-X-X-X-X-X",
"-X-X-X-X-X-X-X-X-X( P 0.Z.R.G.S.G.G.D.a.R P -X-X-X-X-X-X-X-X-X-X",
"-X-X-X-X-X-X-X-X-X-X-X-XY Y ( ^ Q ~ ( -X-X-X-X-X-X-X-X-X-X-X-X-X",
"-X-X-X-X-X-X-X-X-X-X-X-X-X-X-X-X-X-X-X-X-X-X-X-X-X-X-X-X-X-X-X-X",
"-X-X-X-X-X-X-X-X-X-X-X-X-X-X-X-X-X-X-X-X-X-X-X-X-X-X-X-X-X-X-X-X"
};
